<svg version="1.1" id="Layer_1" xmlns="http://www.w3.org/2000/svg" xmlns:xlink="http://www.w3.org/1999/xlink" x="0px" y="0px"
	 width="100%" viewBox="0 0 1000 310" enable-background="new 0 0 1000 310" xml:space="preserve">
<path fill="#F6F7F7" opacity="1.000000" stroke="none" 
	d="
M1001.000000,73.000000 
	C1001.000000,152.301254 1001.000000,231.602493 1001.000000,311.000000 
	C729.975098,311.000000 458.950165,311.000000 187.673401,310.735046 
	C199.363617,304.834991 204.366989,295.784546 204.299606,282.247162 
	C203.904831,202.929108 203.948929,123.607651 204.219498,44.288628 
	C204.267838,30.117126 196.050278,19.590776 181.596436,17.366175 
	C176.593842,16.596226 171.704041,19.647825 171.001907,24.143202 
	C170.207855,29.227049 172.953522,33.177429 178.562820,33.840446 
	C184.207550,34.507648 186.867401,37.531471 187.422928,42.836754 
	C187.699203,45.474953 187.860031,48.138329 187.860855,50.790375 
	C187.883392,124.111374 187.878937,197.432388 187.877533,270.753387 
	C187.877457,274.919312 188.007812,279.091400 187.828873,283.249908 
	C187.463455,291.741577 184.139191,294.902985 175.692368,294.909943 
	C148.863571,294.932068 122.034729,294.919800 95.205910,294.918762 
	C73.542885,294.917908 51.879852,294.926056 30.216848,294.904694 
	C23.137020,294.897705 20.680227,292.840485 19.496317,285.832581 
	C19.166464,283.880066 19.143948,281.859375 19.143417,279.869904 
	C19.122911,202.716217 19.120619,125.562523 19.121315,48.408836 
	C19.121334,46.409977 18.998423,44.387932 19.248377,42.416710 
	C19.929426,37.045746 23.177258,34.184464 28.657387,34.063457 
	C32.821465,33.971508 36.998302,34.200821 41.151886,33.970375 
	C44.566105,33.780964 46.541237,34.913078 48.164154,38.115067 
	C52.273888,46.223515 59.549568,50.623001 68.289680,50.798500 
	C91.443085,51.263412 114.613754,51.152145 137.773453,50.897667 
	C148.976654,50.774567 157.865097,43.568535 161.118958,33.053635 
	C164.358307,22.585667 161.074066,12.458456 152.056763,5.559170 
	C149.839645,3.862826 147.359314,2.510487 145.000000,1.000000 
	C430.333344,1.000000 715.666687,1.000000 1001.000000,1.000000 
	C1001.000000,18.090630 1001.000000,35.082676 1000.727905,52.427158 
	C999.912354,52.571766 999.368958,52.363937 998.376953,52.094879 
	C983.298523,51.741333 968.668213,51.468803 954.038818,51.151627 
	C936.413513,50.769497 918.788818,50.357914 901.164551,49.930473 
	C899.678040,49.894421 898.186035,49.442703 896.714905,49.522495 
	C887.134583,50.042126 877.546265,50.514385 867.997681,51.401550 
	C866.682129,51.523777 864.360229,54.101250 864.567627,55.123348 
	C865.715759,60.781605 867.370056,66.352722 869.134705,71.862816 
	C869.862671,74.135788 871.409668,75.197098 874.179688,73.923737 
	C885.558105,68.693115 897.725220,68.739044 909.904724,68.886589 
	C912.948242,68.923470 914.179810,70.215042 913.954102,73.128891 
	C913.750244,75.761223 913.534302,78.392616 913.238892,81.355240 
	C913.145874,82.140442 913.137573,82.594826 913.057434,83.448654 
	C905.692566,119.593010 898.332581,155.324478 891.147034,191.090973 
	C888.959717,201.978500 887.249451,212.961929 885.327759,223.902664 
	C884.225647,230.176910 884.805359,231.017914 891.018250,230.850723 
	C897.654236,230.672150 904.305847,230.426407 910.904907,229.758240 
	C915.166626,229.326721 919.333923,228.018219 923.566223,227.223831 
	C926.932800,226.591965 927.764099,224.708969 928.087646,221.325378 
	C929.632751,205.166992 930.892456,188.926727 933.625122,172.950150 
	C937.118103,152.527817 941.879578,132.320602 946.181152,112.039101 
	C949.060730,98.462402 952.091187,84.917702 955.149231,70.923355 
	C960.372559,71.429176 965.786499,72.186691 971.223206,72.425461 
	C979.447205,72.786674 987.686951,72.786568 996.343140,72.957352 
	C998.177429,72.983147 999.588745,72.991570 1001.000000,73.000000 
M476.296356,129.075012 
	C474.478271,129.087082 472.660217,129.099152 470.377258,128.486343 
	C470.224030,127.168884 470.074036,125.851036 469.916992,124.534035 
	C469.372162,119.965340 467.538727,117.467644 462.202789,118.070435 
	C450.841827,119.353867 439.410309,120.000214 428.032043,121.149063 
	C423.036530,121.653450 422.252899,123.898941 425.170715,128.123993 
	C425.736633,128.943466 426.479706,129.647629 426.994751,130.494019 
	C430.380920,136.058136 433.971619,141.695923 432.633392,148.596436 
	C429.444580,165.039291 425.750122,181.387039 422.751038,197.862610 
	C421.033966,207.295532 420.125427,216.889618 419.261169,226.448059 
	C419.137726,227.813416 421.393066,230.714539 422.428925,230.659866 
	C432.837036,230.110367 443.219299,229.079453 453.611267,228.212875 
	C456.366394,227.983124 457.121246,226.499680 457.024506,223.865402 
	C456.878113,219.880646 456.615570,215.796082 457.279266,211.903427 
	C460.371490,193.767197 463.729553,175.675766 467.068176,157.582275 
	C468.432434,150.188583 473.718353,145.138763 481.195312,144.454605 
	C481.399384,144.737793 481.670990,144.920715 482.126068,145.688263 
	C483.763489,148.373398 485.508362,151.000092 487.009338,153.759430 
	C488.641876,156.760605 491.083649,158.089539 493.982971,156.299423 
	C500.280060,152.411377 506.533875,148.380692 512.340515,143.816788 
	C513.991882,142.518875 514.649414,139.189758 514.674072,136.780975 
	C514.705566,133.695740 513.756470,130.570190 513.017578,127.513367 
	C511.212769,120.047081 507.701324,117.285263 499.465363,116.485580 
	C491.583710,115.253136 489.071564,116.190041 486.663910,121.598366 
	C485.468048,122.416405 484.272156,123.234436 482.325134,124.031723 
	C481.550049,125.018227 480.774933,126.004730 479.904114,127.609062 
	C479.891907,128.022491 479.879730,128.435928 479.874664,128.872437 
	C479.874664,128.872437 479.895691,128.884430 479.214478,128.825027 
	C478.541260,128.935333 477.868073,129.045639 476.296356,129.075012 
M70.935371,131.022934 
	C74.294296,130.945786 77.653229,130.868652 81.942024,130.896210 
	C97.622017,130.860107 113.302002,130.824005 129.862228,130.928680 
	C132.229492,130.978714 134.596741,131.028748 137.025574,131.553833 
	C137.025574,131.553833 137.115677,132.024307 137.020355,132.952469 
	C137.014435,162.775223 136.994385,192.598007 137.015732,222.420731 
	C137.019531,227.713989 140.673630,231.883224 145.132812,231.903488 
	C150.454193,231.927689 153.768265,228.505081 153.996338,222.639465 
	C154.090256,220.224197 154.011902,217.802216 154.011902,214.970169 
	C157.365067,214.970169 159.851929,215.102539 162.319763,214.942123 
	C167.190796,214.625519 170.853241,210.817993 170.887711,206.231995 
	C170.923981,201.405487 167.556122,198.185822 162.184875,198.014145 
	C159.603561,197.931625 157.017410,197.999924 154.419434,197.999924 
	C154.419434,175.204910 154.419434,153.311859 154.419434,130.932449 
	C157.471130,130.932449 160.128952,131.136642 162.743698,130.887924 
	C167.495911,130.435928 170.976196,126.667877 170.915146,122.379814 
	C170.852463,117.975380 167.589081,114.382248 163.276154,113.968918 
	C155.077286,113.183182 155.077301,113.183174 153.960419,104.972107 
	C153.937958,104.807014 153.920334,104.641045 153.891235,104.477119 
	C152.974472,99.314316 149.942337,96.797462 144.938538,97.044571 
	C140.116837,97.282684 137.243210,100.302711 137.027420,105.515541 
	C136.919586,108.120224 137.008636,110.733047 137.008636,113.938187 
	C134.548096,113.938187 132.763290,113.937973 130.978485,113.938217 
	C113.151375,113.940636 95.324265,113.947731 77.497154,113.943359 
	C70.229378,113.941582 70.229385,113.930283 69.981003,106.731972 
	C69.771446,100.659126 66.653351,97.077957 61.541283,97.038864 
	C55.965385,96.996223 53.063133,100.334106 52.960823,106.907257 
	C52.853382,113.810074 52.853386,113.810234 45.789261,113.959099 
	C45.289558,113.969627 44.788563,113.955650 44.290173,113.985977 
	C39.216694,114.294739 36.044582,117.434402 36.043919,122.139404 
	C36.043232,126.987892 39.464451,130.665161 44.372456,130.930176 
	C47.198105,131.082748 50.035015,131.026703 52.921803,131.716827 
	C52.967743,132.150742 53.013680,132.584656 52.975441,133.948853 
	C52.973488,152.260864 52.970314,170.572861 52.970119,188.884872 
	C52.970028,197.498596 52.972626,197.498596 44.359829,197.987579 
	C39.138035,198.284042 36.172955,201.379974 36.055130,206.658722 
	C35.950871,211.329636 39.148563,214.686951 44.132286,214.941925 
	C46.891232,215.083099 49.663330,214.967270 52.976593,214.967270 
	C52.976593,218.352921 52.356831,221.181366 53.139900,223.545059 
	C54.036098,226.250229 55.616470,229.631424 57.888084,230.804199 
	C64.006203,233.962845 69.861710,229.702316 69.966995,222.624390 
	C70.090736,214.305023 68.744095,215.012100 77.804512,214.998428 
	C91.455330,214.977829 105.106232,215.013672 118.757019,214.985352 
	C124.523224,214.973389 128.947021,211.188690 128.917694,206.408737 
	C128.883926,200.904877 125.501442,198.002594 118.873505,197.978378 
	C106.554604,197.933365 94.235420,197.964279 81.916359,197.963715 
	C78.140961,197.963531 74.365570,197.963699 70.028343,197.963699 
	C70.028343,175.207382 70.028343,153.115692 70.000305,130.999390 
	C70.000305,130.999390 70.022873,131.028702 70.935371,131.022934 
M656.933105,65.002068 
	C656.933105,65.002068 656.934143,64.930145 656.328430,65.276367 
	C654.570007,69.548805 651.902405,73.683014 651.227783,78.120239 
	C649.386597,90.229652 648.058472,102.444557 647.225037,114.665283 
	C646.919800,119.142227 645.674011,120.569977 641.418213,120.108955 
	C638.784119,119.823608 636.068665,119.835014 633.441650,120.148682 
	C632.291382,120.286018 630.386230,121.456627 630.336975,122.251701 
	C630.043335,126.994743 630.191650,131.765137 630.191650,137.000290 
	C635.717224,136.615616 640.560730,136.278427 645.906311,135.906281 
	C645.906311,138.786179 646.088745,140.927872 645.873840,143.028931 
	C645.047424,151.108826 644.061646,159.172241 643.193481,167.248062 
	C639.927917,197.626465 635.349915,227.777878 626.987427,257.223694 
	C625.748352,261.586670 626.973511,263.573364 631.012878,264.329559 
	C638.656372,265.760376 646.376038,266.832642 653.955017,268.538391 
	C657.820129,269.408295 659.595032,267.833191 660.831970,264.727997 
	C667.966125,246.819321 670.946716,228.020874 672.880249,208.309219 
	C672.883118,207.859070 672.886047,207.408936 673.023376,206.144653 
	C675.339661,182.433823 677.655945,158.722977 680.085449,134.628845 
	C680.085449,134.628845 680.125549,134.231186 680.996460,134.129471 
	C686.291809,134.414490 691.585449,134.828354 696.883667,134.899399 
	C698.315186,134.918564 700.618713,134.274277 701.049194,133.290192 
	C702.791016,129.308670 703.958252,125.075737 705.641113,120.024277 
	C697.500916,120.024277 690.645386,120.024277 682.545166,120.024277 
	C684.547729,118.118225 685.539429,117.093643 686.613525,116.164276 
	C700.778015,103.907829 711.044861,89.025505 715.340271,70.710983 
	C717.230408,62.652050 717.760376,53.957298 709.574585,48.101646 
	C701.221558,42.126377 691.799622,42.126007 682.384644,44.283375 
	C670.660522,46.969879 661.576538,53.332657 656.933105,65.002068 
M748.005981,211.159897 
	C747.385925,208.424820 746.765808,205.689743 746.244202,202.208496 
	C746.450745,200.461533 746.657288,198.714584 746.998413,196.150192 
	C747.138245,195.169403 747.264832,194.186523 747.419922,193.208160 
	C749.281006,181.471939 751.146301,169.736374 753.324219,157.297424 
	C754.541077,151.455963 756.101929,145.658951 756.864624,139.758774 
	C757.462280,135.134552 759.441467,133.459915 763.974426,133.988098 
	C768.420959,134.506210 772.909241,134.752609 777.385803,134.873276 
	C778.728516,134.909454 780.961975,134.480972 781.301208,133.654999 
	C782.990112,129.542740 784.183289,125.226891 785.873413,119.982239 
	C776.651611,119.982239 769.068604,119.982239 760.990906,119.982239 
	C761.269775,118.058922 761.493835,116.804115 761.628418,115.539787 
	C762.732483,105.164597 763.880371,94.793465 764.881531,84.408241 
	C765.260559,80.476677 763.472229,78.267891 759.291748,79.039551 
	C749.849548,80.782471 740.442932,82.720108 730.995300,84.431541 
	C727.769531,85.015869 726.905762,86.571045 726.822510,89.843887 
	C726.607483,98.293571 725.597168,106.722008 725.342773,115.172134 
	C725.211121,119.545288 723.213623,120.188248 719.430420,120.152138 
	C707.872131,120.041794 707.870850,120.183083 708.047974,131.857849 
	C708.055542,132.357651 708.098022,132.861252 708.053711,133.356781 
	C707.750427,136.746155 709.533691,137.198120 712.392700,136.748062 
	C715.405701,136.273804 718.478821,136.181580 722.490234,135.840393 
	C720.090454,147.422165 717.646973,157.895660 715.795471,168.472778 
	C713.283142,182.824493 710.327881,197.187119 709.222046,211.671753 
	C708.110596,226.228638 719.588562,234.831512 733.967773,232.554886 
	C746.566223,230.560211 757.126831,224.682724 767.107361,217.266602 
	C770.455933,214.778442 771.020142,212.092148 767.985229,208.194748 
	C766.426575,207.641129 764.622437,206.286682 763.352783,206.675888 
	C758.480713,208.169327 753.780090,210.222168 748.574768,211.982361 
	C748.574768,211.982361 748.127930,211.941833 748.005981,211.159897 
M358.885956,51.495041 
	C356.105591,51.028095 353.337708,50.256187 350.542938,50.142052 
	C326.388947,49.155651 302.359772,50.391876 278.549988,54.749142 
	C276.661682,55.094707 274.953827,56.426201 273.162079,57.299492 
	C274.178711,59.060448 274.866882,61.158073 276.267914,62.525078 
	C282.937958,69.033241 287.079956,76.734871 285.948730,86.115128 
	C284.620361,97.130310 282.713623,108.105370 280.459320,118.973732 
	C273.549561,152.287216 266.320770,185.534409 259.313477,218.827911 
	C258.517059,222.611954 258.339508,226.526230 257.860901,230.496780 
	C266.132294,230.496780 273.685638,231.299728 280.985168,230.282059 
	C289.085022,229.152817 296.719482,228.204712 304.904510,230.574631 
	C315.506592,233.644409 326.502350,233.660461 337.453400,231.380630 
	C358.754303,226.946136 373.598541,213.577545 385.215179,196.283798 
	C403.268311,169.408005 408.651245,138.992966 407.607574,107.329208 
	C407.260712,96.805405 404.933228,86.226418 399.263397,76.831825 
	C390.233337,61.869541 376.210785,54.866158 358.885956,51.495041 
M562.228882,224.797699 
	C564.531372,223.089478 566.833923,221.381241 569.201599,219.624710 
	C575.782593,230.908524 582.849670,234.748703 592.412659,232.601028 
	C604.341919,229.921982 614.665649,224.058273 623.947571,216.272049 
	C624.776917,215.576324 625.511963,214.005844 625.340698,213.004074 
	C624.273376,206.761185 621.412598,205.367935 615.806335,208.099640 
	C614.758850,208.610016 613.725647,209.149918 612.673828,209.650940 
	C607.095276,212.308090 605.900513,211.660248 605.899231,205.579758 
	C605.893982,179.956451 610.973511,155.123337 618.040588,130.658646 
	C619.254150,126.457634 618.488220,124.326523 614.393250,123.368446 
	C606.814270,121.595276 599.229797,119.844086 591.632080,118.153870 
	C588.830322,117.530594 586.789673,118.307251 586.000488,121.441956 
	C585.360474,123.984474 583.909302,124.232368 581.474426,123.137871 
	C577.552368,121.374847 573.479187,119.822983 569.327026,118.719048 
	C553.854797,114.605476 539.878723,118.027100 529.276978,129.846939 
	C509.205994,152.223969 506.607178,179.442505 511.312897,207.508804 
	C515.062561,229.872864 538.286743,238.792755 554.146179,229.153946 
	C556.551514,227.692032 559.097168,226.460983 562.228882,224.797699 
M832.452515,208.207413 
	C827.227600,209.493317 825.638367,208.657471 826.177673,202.941376 
	C827.266296,191.403595 828.415405,179.786606 830.819885,168.474457 
	C837.061584,139.111130 844.418274,109.980843 850.395325,80.567635 
	C852.166687,71.850937 850.983887,62.499050 850.741211,53.449287 
	C850.708496,52.231236 848.188538,49.997627 846.912048,50.061733 
	C833.338867,50.743382 819.752747,51.488506 806.238831,52.882023 
	C800.103699,53.514652 799.579346,55.738659 803.171143,60.728756 
	C808.773804,68.512459 812.536499,76.855957 810.934814,86.773033 
	C810.142151,91.681007 809.448853,96.619057 808.347107,101.460777 
	C802.199646,128.475769 795.740479,155.421661 789.833130,182.488373 
	C787.863159,191.514816 786.353271,200.809570 786.150879,210.015030 
	C785.838135,224.242218 797.390442,234.583130 810.443420,232.793335 
	C824.523865,230.862686 835.784485,223.329407 846.114685,214.173187 
	C847.021301,213.369675 847.734802,211.520813 847.490479,210.382339 
	C846.048096,203.661713 843.717651,202.631699 837.637268,205.655380 
	C836.146240,206.396835 834.656311,207.140564 832.452515,208.207413 
z"/>
<path fill="#90BDF9" opacity="1.000000" stroke="none" 
	d="
M144.531342,1.000000 
	C147.359314,2.510487 149.839645,3.862826 152.056763,5.559170 
	C161.074066,12.458456 164.358307,22.585667 161.118958,33.053635 
	C157.865097,43.568535 148.976654,50.774567 137.773453,50.897667 
	C114.613754,51.152145 91.443085,51.263412 68.289680,50.798500 
	C59.549568,50.623001 52.273888,46.223515 48.164154,38.115067 
	C46.541237,34.913078 44.566105,33.780964 41.151886,33.970375 
	C36.998302,34.200821 32.821465,33.971508 28.657387,34.063457 
	C23.177258,34.184464 19.929426,37.045746 19.248377,42.416710 
	C18.998423,44.387932 19.121334,46.409977 19.121315,48.408836 
	C19.120619,125.562523 19.122911,202.716217 19.143417,279.869904 
	C19.143948,281.859375 19.166464,283.880066 19.496317,285.832581 
	C20.680227,292.840485 23.137020,294.897705 30.216848,294.904694 
	C51.879852,294.926056 73.542885,294.917908 95.205910,294.918762 
	C122.034729,294.919800 148.863571,294.932068 175.692368,294.909943 
	C184.139191,294.902985 187.463455,291.741577 187.828873,283.249908 
	C188.007812,279.091400 187.877457,274.919312 187.877533,270.753387 
	C187.878937,197.432388 187.883392,124.111374 187.860855,50.790375 
	C187.860031,48.138329 187.699203,45.474953 187.422928,42.836754 
	C186.867401,37.531471 184.207550,34.507648 178.562820,33.840446 
	C172.953522,33.177429 170.207855,29.227049 171.001907,24.143202 
	C171.704041,19.647825 176.593842,16.596226 181.596436,17.366175 
	C196.050278,19.590776 204.267838,30.117126 204.219498,44.288628 
	C203.948929,123.607651 203.904831,202.929108 204.299606,282.247162 
	C204.366989,295.784546 199.363617,304.834991 187.210754,310.735046 
	C131.979111,311.000000 76.958206,311.000000 21.221090,310.762451 
	C10.419684,306.813446 4.825317,299.400940 2.857828,288.576721 
	C2.932191,210.339981 2.931105,132.571579 3.005749,54.803249 
	C3.012106,48.180515 3.523232,41.558266 3.885418,34.586708 
	C8.111572,23.777338 16.062214,18.271257 27.004543,17.203293 
	C32.273205,16.689072 37.637943,17.232140 42.941090,16.952909 
	C44.482231,16.871763 46.750473,15.995694 47.337807,14.814145 
	C50.719204,8.011685 56.330692,3.956597 63.000000,1.000000 
	C90.020897,1.000000 117.041786,1.000000 144.531342,1.000000 
M81.508743,34.022255 
	C99.488441,34.024200 117.468208,34.054314 135.447815,34.013126 
	C141.920029,33.998299 145.020691,31.305765 145.095978,25.893919 
	C145.172104,20.419415 142.080093,17.147837 135.972443,17.114201 
	C113.997971,16.993179 92.022148,17.024416 70.047386,17.122694 
	C65.184769,17.144440 61.184437,21.202080 61.196194,25.538609 
	C61.208168,29.954945 65.097580,33.775818 70.026970,33.986416 
	C73.516747,34.135506 77.017830,34.019798 81.508743,34.022255 
z"/>
<path fill="#F5F7F8" opacity="1.000000" stroke="none" 
	d="
M62.531342,1.000000 
	C56.330692,3.956597 50.719204,8.011685 47.337807,14.814145 
	C46.750473,15.995694 44.482231,16.871763 42.941090,16.952909 
	C37.637943,17.232140 32.273205,16.689072 27.004543,17.203293 
	C16.062214,18.271257 8.111572,23.777338 3.538498,34.605850 
	C2.404017,34.982712 1.702008,34.991356 1.000000,35.000000 
	C1.000000,23.718565 1.000000,12.437130 1.000000,1.000000 
	C21.353992,1.000000 41.708340,1.000000 62.531342,1.000000 
z"/>
<path fill="#D6EFFB" opacity="1.000000" stroke="none" 
	d="
M1.000000,35.468658 
	C1.702008,34.991356 2.404017,34.982712 3.452945,34.954929 
	C3.523232,41.558266 3.012106,48.180515 3.005749,54.803249 
	C2.931105,132.571579 2.932191,210.339981 2.559282,288.564697 
	C1.803507,289.014008 1.401753,289.007019 1.000000,289.000000 
	C1.000000,204.645767 1.000000,120.291542 1.000000,35.468658 
z"/>
<path fill="#EFF6F9" opacity="1.000000" stroke="none" 
	d="
M1.000000,289.468781 
	C1.401753,289.007019 1.803507,289.014008 2.503806,289.033020 
	C4.825317,299.400940 10.419684,306.813446 20.752434,310.762451 
	C14.403625,311.000000 7.807249,311.000000 1.000000,311.000000 
	C1.000000,303.980591 1.000000,296.959076 1.000000,289.468781 
z"/>
<path fill="#D6EFFB" opacity="1.000000" stroke="none" 
	d="
M998.825439,52.156113 
	C999.368958,52.363937 999.912354,52.571766 1000.727905,52.889797 
	C1001.000000,59.354397 1001.000000,65.708794 1001.000000,72.531593 
	C999.588745,72.991570 998.177429,72.983147 996.527954,72.644859 
	C997.200500,69.743378 998.642761,67.223427 998.898926,64.588173 
	C999.297729,60.485298 998.890930,56.304115 998.825439,52.156113 
z"/>
<path fill="#90BDFB" opacity="1.000000" stroke="none" 
	d="
M359.293213,51.619812 
	C376.210785,54.866158 390.233337,61.869541 399.263397,76.831825 
	C404.933228,86.226418 407.260712,96.805405 407.607574,107.329208 
	C408.651245,138.992966 403.268311,169.408005 385.215179,196.283798 
	C373.598541,213.577545 358.754303,226.946136 337.453400,231.380630 
	C326.502350,233.660461 315.506592,233.644409 304.904510,230.574631 
	C296.719482,228.204712 289.085022,229.152817 280.985168,230.282059 
	C273.685638,231.299728 266.132294,230.496780 257.860901,230.496780 
	C258.339508,226.526230 258.517059,222.611954 259.313477,218.827911 
	C266.320770,185.534409 273.549561,152.287216 280.459320,118.973732 
	C282.713623,108.105370 284.620361,97.130310 285.948730,86.115128 
	C287.079956,76.734871 282.937958,69.033241 276.267914,62.525078 
	C274.866882,61.158073 274.178711,59.060448 273.162079,57.299500 
	C274.953827,56.426201 276.661682,55.094707 278.549988,54.749142 
	C302.359772,50.391876 326.388947,49.155651 350.542938,50.142052 
	C353.337708,50.256187 356.105591,51.028095 359.293213,51.619812 
M300.549561,211.612244 
	C310.287170,215.385880 319.833893,215.701416 329.314819,210.566391 
	C340.311859,204.610184 347.058746,194.831757 351.664795,183.935486 
	C364.375732,153.865723 371.336304,122.629646 367.995209,89.687370 
	C366.667633,76.597549 361.035675,68.303261 350.535461,66.588341 
	C344.087067,65.535172 337.306183,66.454651 330.677155,66.602493 
	C328.168335,66.658447 327.188873,67.955986 326.837463,70.679451 
	C325.543701,80.706055 324.242432,90.764725 322.186249,100.653786 
	C315.732208,131.693970 308.861267,162.647278 302.334778,193.672745 
	C301.146881,199.319794 300.821259,205.148224 300.549561,211.612244 
z"/>
<path fill="#90BDFA" opacity="1.000000" stroke="none" 
	d="
M561.903442,224.960419 
	C559.097168,226.460983 556.551514,227.692032 554.146179,229.153946 
	C538.286743,238.792755 515.062561,229.872864 511.312897,207.508804 
	C506.607178,179.442505 509.205994,152.223969 529.276978,129.846939 
	C539.878723,118.027100 553.854797,114.605476 569.327026,118.719048 
	C573.479187,119.822983 577.552368,121.374847 581.474426,123.137871 
	C583.909302,124.232368 585.360474,123.984474 586.000488,121.441956 
	C586.789673,118.307251 588.830322,117.530594 591.632080,118.153870 
	C599.229797,119.844086 606.814270,121.595276 614.393250,123.368446 
	C618.488220,124.326523 619.254150,126.457634 618.040588,130.658646 
	C610.973511,155.123337 605.893982,179.956451 605.899231,205.579758 
	C605.900513,211.660248 607.095276,212.308090 612.673828,209.650940 
	C613.725647,209.149918 614.758850,208.610016 615.806335,208.099640 
	C621.412598,205.367935 624.273376,206.761185 625.340698,213.004074 
	C625.511963,214.005844 624.776917,215.576324 623.947571,216.272049 
	C614.665649,224.058273 604.341919,229.921982 592.412659,232.601028 
	C582.849670,234.748703 575.782593,230.908524 569.201599,219.624710 
	C566.833923,221.381241 564.531372,223.089478 561.903442,224.960419 
M574.742676,163.208862 
	C576.593262,155.288345 578.516785,147.383499 580.225525,139.432495 
	C580.522949,138.048950 580.479370,135.803116 579.634705,135.088364 
	C573.086792,129.547516 562.204773,131.600952 557.914673,139.373108 
	C547.167969,158.842392 544.569336,179.855789 547.258911,201.614456 
	C548.153992,208.855347 552.003662,211.577942 558.417480,210.962585 
	C566.104126,210.225128 569.376587,206.506958 570.051636,199.550323 
	C571.203796,187.675507 572.969360,175.860229 574.742676,163.208862 
z"/>
<path fill="#8EBDFD" opacity="1.000000" stroke="none" 
	d="
M680.125549,134.231186 
	C680.125549,134.231186 680.085449,134.628845 679.656250,134.888763 
	C678.501892,136.377716 677.248230,137.560516 677.136108,138.843155 
	C676.299194,148.412354 675.729736,158.004471 674.993225,167.583023 
	C674.435120,174.841202 673.592041,182.080750 673.179565,189.345810 
	C672.847107,195.203430 672.968811,201.086823 672.888916,206.958786 
	C672.886047,207.408936 672.883118,207.859070 672.427368,208.669617 
	C671.361816,209.493622 670.295410,209.882782 670.205261,210.432159 
	C669.057068,217.428467 668.470032,224.543243 666.906799,231.438965 
	C664.545227,241.856689 661.721802,252.185242 658.589355,262.396729 
	C658.092896,264.015076 654.811646,265.991211 653.052246,265.786591 
	C647.403931,265.129639 641.728638,263.948242 636.318176,262.187622 
	C629.008850,259.809052 629.186218,259.010559 631.084534,251.783157 
	C633.711243,241.783112 636.069214,231.684906 637.912537,221.514587 
	C639.677185,211.777924 640.499939,201.874084 642.018860,192.087524 
	C642.616028,188.239838 644.474243,184.566345 644.904175,180.718124 
	C646.435791,167.011459 647.519836,153.255447 648.942383,139.535645 
	C649.524414,133.922729 646.325562,131.056244 640.746155,132.619324 
	C639.467957,132.977417 638.188599,133.815735 636.959106,133.729492 
	C635.691040,133.640549 633.484009,132.781494 633.424438,132.106277 
	C633.184448,129.384094 633.016968,126.336525 634.071960,123.964760 
	C634.541565,122.908875 638.042053,122.658035 640.047974,122.927338 
	C646.862000,123.842163 650.903137,119.755806 649.514771,113.006256 
	C649.283325,111.881233 648.963623,110.685669 649.118164,109.583450 
	C650.989502,96.231995 650.306702,82.412178 656.469849,69.826729 
	C657.144409,68.449081 656.803894,66.574333 656.934204,64.930145 
	C656.934143,64.930145 656.933105,65.002068 657.348816,64.988480 
	C659.159546,64.251228 661.737549,63.571167 661.766052,62.797142 
	C662.043457,55.271236 668.932739,52.269207 673.284668,49.989075 
	C684.150940,44.295879 696.272644,45.334469 707.866150,49.532589 
	C708.691772,49.831532 709.443787,50.702343 709.937134,51.490570 
	C713.321899,56.898151 714.372375,63.000858 713.002319,68.996330 
	C711.749756,74.477646 709.223511,79.695572 707.009155,84.923935 
	C701.771362,97.290688 693.085999,106.999382 683.054932,115.672836 
	C682.059326,116.533745 681.093933,118.250702 681.265320,119.398415 
	C681.422058,120.447121 683.066650,121.937248 684.183350,122.058777 
	C688.078125,122.482643 692.040894,122.247620 695.951416,122.576942 
	C697.603577,122.716080 699.189941,123.636116 700.806213,124.201210 
	C699.742065,126.760658 699.134827,131.104019 697.520996,131.517365 
	C693.883667,132.448975 689.470642,132.237625 685.889404,130.999023 
	C681.908813,129.622314 680.701904,130.736099 680.125549,134.231186 
M681.987427,100.773399 
	C682.414856,104.174942 684.214966,102.412506 685.310669,101.464439 
	C686.932983,100.060760 688.306519,98.354706 689.702026,96.706352 
	C697.158691,87.899055 703.032898,78.297714 702.759583,66.298569 
	C702.705688,63.931618 700.792175,60.180889 698.972290,59.640293 
	C696.683411,58.960384 692.579407,60.095039 691.096497,61.931053 
	C688.373047,65.303070 686.069702,69.581032 685.248169,73.803703 
	C683.576111,82.398056 683.006104,91.206810 681.987427,100.773399 
z"/>
<path fill="#90BDFA" opacity="1.000000" stroke="none" 
	d="
M832.809204,208.045334 
	C834.656311,207.140564 836.146240,206.396835 837.637268,205.655380 
	C843.717651,202.631699 846.048096,203.661713 847.490479,210.382339 
	C847.734802,211.520813 847.021301,213.369675 846.114685,214.173187 
	C835.784485,223.329407 824.523865,230.862686 810.443420,232.793335 
	C797.390442,234.583130 785.838135,224.242218 786.150879,210.015030 
	C786.353271,200.809570 787.863159,191.514816 789.833130,182.488373 
	C795.740479,155.421661 802.199646,128.475769 808.347107,101.460777 
	C809.448853,96.619057 810.142151,91.681007 810.934814,86.773033 
	C812.536499,76.855957 808.773804,68.512459 803.171143,60.728756 
	C799.579346,55.738659 800.103699,53.514652 806.238831,52.882023 
	C819.752747,51.488506 833.338867,50.743382 846.912048,50.061733 
	C848.188538,49.997627 850.708496,52.231236 850.741211,53.449287 
	C850.983887,62.499050 852.166687,71.850937 850.395325,80.567635 
	C844.418274,109.980843 837.061584,139.111130 830.819885,168.474457 
	C828.415405,179.786606 827.266296,191.403595 826.177673,202.941376 
	C825.638367,208.657471 827.227600,209.493317 832.809204,208.045334 
z"/>
<path fill="#8DBDFD" opacity="1.000000" stroke="none" 
	d="
M913.129333,83.049217 
	C913.137573,82.594826 913.145874,82.140442 913.596558,81.329971 
	C915.023926,78.079506 916.409790,75.249535 916.887939,72.273743 
	C917.434143,68.873512 915.469482,66.913857 911.916748,67.014671 
	C899.521667,67.366447 886.930908,65.430252 874.907410,70.392159 
	C873.728027,70.878876 870.753906,70.002708 870.447754,69.121567 
	C868.808289,64.403206 867.751221,59.482502 866.209229,53.538795 
	C871.949158,53.287525 877.448486,52.966537 882.952332,52.832073 
	C887.109192,52.730511 891.271729,52.876358 895.431824,52.896591 
	C911.513000,52.974812 927.595459,52.946072 943.674988,53.149357 
	C959.887268,53.354317 976.098572,53.722134 992.303955,54.224617 
	C993.867188,54.273083 996.407593,55.507866 996.711853,56.661896 
	C997.348267,59.075928 997.093933,61.853985 996.667297,64.392044 
	C995.794678,69.582199 992.556702,71.612473 986.855530,71.039436 
	C977.807312,70.129982 968.708923,69.571205 959.723083,68.245232 
	C954.439026,67.465508 951.403564,69.446404 950.937378,74.839958 
	C950.483337,80.092743 949.785645,85.367538 948.637878,90.508286 
	C946.273682,101.096985 943.415344,111.574585 940.986267,122.149780 
	C937.923950,135.481674 935.000977,148.847351 932.204590,162.237427 
	C931.332397,166.413528 931.126343,170.724884 930.508301,174.958694 
	C929.232727,183.697128 927.901123,192.427490 926.561035,201.156342 
	C925.799500,206.116882 924.092590,211.121719 924.390686,216.010330 
	C924.819336,223.040710 923.457458,226.181213 916.402466,226.830429 
	C908.149353,227.589920 899.828430,227.590195 891.542664,228.028259 
	C888.523132,228.187897 887.622375,226.633957 888.023315,224.061218 
	C888.930420,218.241257 889.941650,212.436707 890.976685,206.637695 
	C892.568909,197.716888 894.093872,188.781342 895.877197,179.898193 
	C897.479797,171.914902 899.490234,164.014145 901.147522,156.040985 
	C904.715149,138.877792 908.435669,121.739090 911.544312,104.491371 
	C912.808655,97.476631 912.643921,90.204330 913.129333,83.049217 
z"/>
<path fill="#90BDFA" opacity="1.000000" stroke="none" 
	d="
M746.863770,196.967636 
	C746.657288,198.714584 746.450745,200.461533 745.885498,202.843964 
	C745.424377,206.598221 742.762268,210.503769 748.127930,211.941833 
	C748.127930,211.941833 748.574768,211.982361 748.865356,212.376831 
	C752.134644,212.425919 755.155823,212.286133 758.080750,211.681076 
	C761.446777,210.984787 764.727722,209.877167 768.045654,208.948181 
	C771.020142,212.092148 770.455933,214.778442 767.107361,217.266602 
	C757.126831,224.682724 746.566223,230.560211 733.967773,232.554886 
	C719.588562,234.831512 708.110596,226.228638 709.222046,211.671753 
	C710.327881,197.187119 713.283142,182.824493 715.795471,168.472778 
	C717.646973,157.895660 720.090454,147.422165 722.490234,135.840393 
	C718.478821,136.181580 715.405701,136.273804 712.392700,136.748062 
	C709.533691,137.198120 707.750427,136.746155 708.053711,133.356781 
	C708.098022,132.861252 708.055542,132.357651 708.047974,131.857849 
	C707.870850,120.183083 707.872131,120.041794 719.430420,120.152138 
	C723.213623,120.188248 725.211121,119.545288 725.342773,115.172134 
	C725.597168,106.722008 726.607483,98.293571 726.822510,89.843887 
	C726.905762,86.571045 727.769531,85.015869 730.995300,84.431541 
	C740.442932,82.720108 749.849548,80.782471 759.291748,79.039551 
	C763.472229,78.267891 765.260559,80.476677 764.881531,84.408241 
	C763.880371,94.793465 762.732483,105.164597 761.628418,115.539787 
	C761.493835,116.804115 761.269775,118.058922 760.990906,119.982239 
	C769.068604,119.982239 776.651611,119.982239 785.873413,119.982239 
	C784.183289,125.226891 782.990112,129.542740 781.301208,133.654999 
	C780.961975,134.480972 778.728516,134.909454 777.385803,134.873276 
	C772.909241,134.752609 768.420959,134.506210 763.974426,133.988098 
	C759.441467,133.459915 757.462280,135.134552 756.864624,139.758774 
	C756.101929,145.658951 754.541077,151.455963 752.893433,157.881927 
	C751.565613,161.391556 750.568420,164.290588 749.798462,167.248764 
	C748.945984,170.524002 747.910706,173.822739 747.648926,177.165573 
	C747.133606,183.746399 747.097961,190.364792 746.863770,196.967636 
z"/>
<path fill="#8DBDFB" opacity="1.000000" stroke="none" 
	d="
M53.059616,133.018570 
	C53.013680,132.584656 52.967743,132.150742 53.150002,131.189178 
	C51.802586,129.985168 50.267456,129.182892 48.642376,128.660385 
	C45.834930,127.757713 42.525681,127.630951 40.308170,125.988754 
	C39.085148,125.083023 38.754692,120.311035 39.587326,119.791656 
	C42.042034,118.260437 45.284821,117.328735 48.206001,117.360863 
	C52.882511,117.412285 54.823372,116.184219 54.985226,111.459335 
	C55.042213,109.795685 54.420750,107.802170 55.131840,106.531746 
	C56.586884,103.932167 58.734436,101.720215 60.596825,99.348640 
	C62.754406,101.147530 65.405403,102.619019 66.893723,104.862000 
	C67.863731,106.323868 66.882141,108.956314 67.261406,110.972855 
	C67.580444,112.669159 68.322182,115.395233 69.363220,115.645988 
	C73.014351,116.525452 76.878174,116.845978 80.656715,116.815514 
	C95.939667,116.692299 111.251289,115.666229 126.492683,116.334229 
	C137.608139,116.821411 137.566498,117.771317 139.012482,107.259674 
	C139.470215,103.932266 143.937912,99.682816 146.813080,100.054657 
	C150.869232,100.579239 150.829102,103.792328 151.025192,106.833961 
	C151.379501,112.330132 152.139984,117.528877 159.421448,117.748230 
	C161.150970,117.800323 162.967850,117.814278 164.568893,118.360588 
	C165.842407,118.795143 167.539261,119.821419 167.846436,120.920776 
	C168.873779,124.597656 166.687927,127.461914 162.904114,128.051941 
	C160.782928,128.382706 158.661743,128.717331 156.534225,129.003052 
	C152.375671,129.561554 151.061737,132.297928 151.226929,136.045105 
	C151.284348,137.347687 151.950272,138.632645 151.954727,139.926971 
	C152.010300,156.027008 152.005371,172.127319 151.981094,188.227493 
	C151.978851,189.711502 151.870422,191.221405 151.583328,192.674225 
	C150.571167,197.796066 152.574600,200.578568 157.776581,200.962799 
	C159.599014,201.097397 161.634903,200.502350 163.218353,201.132492 
	C164.959152,201.825241 167.007584,203.290680 167.579514,204.897369 
	C168.057312,206.239548 167.095642,208.992310 165.881149,209.830704 
	C164.003296,211.127029 161.356598,211.906433 159.053406,211.867630 
	C153.994202,211.782379 150.558273,215.149338 151.228226,220.246185 
	C151.744919,224.177307 148.685074,228.731079 145.384125,228.943512 
	C142.531006,229.127106 139.124969,225.121368 139.005966,221.309219 
	C138.648529,209.858566 138.222610,198.408340 138.040024,186.954483 
	C137.878128,176.797729 137.924988,166.635391 138.046738,156.477524 
	C138.094193,152.517715 138.952515,148.549469 138.798019,144.610321 
	C138.632858,140.399460 137.708588,136.218384 137.115677,132.024307 
	C137.115677,132.024307 137.025574,131.553833 136.929626,130.929260 
	C134.089783,128.407425 131.420059,127.715469 128.981995,130.787903 
	C113.302002,130.824005 97.622017,130.860107 81.360939,130.479935 
	C77.064011,128.934250 73.294769,127.209610 70.022873,131.028702 
	C70.022873,131.028702 70.000305,130.999390 69.641899,131.041931 
	C68.237617,132.312195 66.368675,133.498520 66.304497,134.775558 
	C66.131218,138.222809 66.958557,141.707458 66.976959,145.179459 
	C67.062599,161.336151 66.958412,177.493820 67.034470,193.650604 
	C67.058395,198.731628 69.470444,200.971207 74.423592,200.988907 
	C78.846535,201.004715 83.269577,200.989716 87.692581,200.989914 
	C98.019844,200.990356 108.347260,201.022903 118.674278,200.973541 
	C121.719948,200.958984 124.469955,201.226624 124.956131,205.019379 
	C125.359642,208.167191 122.300598,212.491974 119.329407,212.922562 
	C116.338600,213.355972 113.329857,213.894135 110.322220,213.939514 
	C101.662872,214.070206 92.996765,214.114883 84.340225,213.906372 
	C80.389816,213.811203 76.465935,212.826965 72.511276,212.637604 
	C68.433174,212.442291 65.290627,216.010864 66.897041,219.135941 
	C68.659019,222.563660 67.374390,225.144623 65.136665,227.013763 
	C63.836826,228.099503 60.595734,228.593994 59.438221,227.731186 
	C57.458462,226.255463 55.404301,223.602692 55.181923,221.272430 
	C54.326904,212.312805 54.191555,211.759644 45.430454,212.080841 
	C41.963589,212.207962 39.382710,210.661865 39.381527,207.730392 
	C39.380630,205.516418 41.345917,202.639359 43.290661,201.279846 
	C45.104748,200.011673 48.037563,200.279266 50.493034,200.007004 
	C55.155727,199.490051 56.574306,196.958817 54.718853,192.604202 
	C54.221649,191.437286 54.036308,190.056503 54.032215,188.772873 
	C53.986561,174.448120 53.983513,160.123062 54.037376,145.798355 
	C54.042881,144.334763 54.199509,142.739182 54.793583,141.436295 
	C56.309509,138.111618 55.798145,135.380280 53.059616,133.018570 
z"/>
<path fill="#8DBDFD" opacity="1.000000" stroke="none" 
	d="
M482.010132,145.003372 
	C481.670990,144.920715 481.399384,144.737793 481.097168,143.827789 
	C480.817139,141.848312 480.635254,140.495667 480.272247,137.795746 
	C475.082672,142.463943 470.847656,146.235962 466.679504,150.080475 
	C466.258209,150.469086 466.180328,151.282593 466.044617,151.920547 
	C463.823151,162.365295 461.206757,172.747543 459.517548,183.278320 
	C457.582489,195.342010 456.299530,207.520828 455.084717,219.684753 
	C454.533295,225.206100 453.157379,226.886673 447.396790,227.017395 
	C440.482544,227.174301 433.541595,227.120438 426.668915,227.763733 
	C422.805939,228.125336 421.716553,226.634308 422.025970,223.380280 
	C422.633331,216.992630 423.050659,210.555283 424.196075,204.256607 
	C427.151978,188.002106 430.795013,171.867371 433.503174,155.575027 
	C435.092194,146.015488 435.078186,136.298416 428.502289,128.025848 
	C425.856476,124.697403 427.145966,123.247505 430.842438,122.979385 
	C440.419861,122.284691 449.994049,121.488579 459.583954,121.044090 
	C465.750671,120.758270 467.594971,123.076660 467.377472,129.422226 
	C467.281586,132.219254 467.205261,135.228912 470.997528,135.996033 
	C471.003998,135.999069 471.010040,136.009949 471.156738,136.231598 
	C471.846191,136.273178 472.388885,136.093109 472.919189,135.916046 
	C472.906769,135.919067 472.908752,135.891327 473.284637,135.922852 
	C477.994415,135.586914 478.774109,132.084915 479.895691,128.884430 
	C479.895691,128.884430 479.874664,128.872437 480.228912,128.861877 
	C483.735382,126.774025 486.835327,124.611610 490.050415,122.636665 
	C497.417236,118.111412 502.952209,119.253326 508.168488,126.230637 
	C508.556732,126.749954 509.033386,127.222031 509.536377,127.633659 
	C512.305420,129.899780 513.770691,137.837341 511.421570,140.389389 
	C507.894348,144.221298 504.208252,148.022186 500.068542,151.145493 
	C495.047394,154.933868 490.214264,153.337692 486.880310,148.072830 
	C485.953186,146.608780 483.670776,146.002930 482.010132,145.003372 
z"/>
<path fill="#9EBFE9" opacity="1.000000" stroke="none" 
	d="
M913.057434,83.448654 
	C912.643921,90.204330 912.808655,97.476631 911.544312,104.491371 
	C908.435669,121.739090 904.715149,138.877792 901.147522,156.040985 
	C899.490234,164.014145 897.479797,171.914902 895.877197,179.898193 
	C894.093872,188.781342 892.568909,197.716888 890.976685,206.637695 
	C889.941650,212.436707 888.930420,218.241257 888.023315,224.061218 
	C887.622375,226.633957 888.523132,228.187897 891.542664,228.028259 
	C899.828430,227.590195 908.149353,227.589920 916.402466,226.830429 
	C923.457458,226.181213 924.819336,223.040710 924.390686,216.010330 
	C924.092590,211.121719 925.799500,206.116882 926.561035,201.156342 
	C927.901123,192.427490 929.232727,183.697128 930.508301,174.958694 
	C931.126343,170.724884 931.332397,166.413528 932.204590,162.237427 
	C935.000977,148.847351 937.923950,135.481674 940.986267,122.149780 
	C943.415344,111.574585 946.273682,101.096985 948.637878,90.508286 
	C949.785645,85.367538 950.483337,80.092743 950.937378,74.839958 
	C951.403564,69.446404 954.439026,67.465508 959.723083,68.245232 
	C968.708923,69.571205 977.807312,70.129982 986.855530,71.039436 
	C992.556702,71.612473 995.794678,69.582199 996.667297,64.392044 
	C997.093933,61.853985 997.348267,59.075928 996.711853,56.661896 
	C996.407593,55.507866 993.867188,54.273083 992.303955,54.224617 
	C976.098572,53.722134 959.887268,53.354317 943.674988,53.149357 
	C927.595459,52.946072 911.513000,52.974812 895.431824,52.896591 
	C891.271729,52.876358 887.109192,52.730511 882.952332,52.832073 
	C877.448486,52.966537 871.949158,53.287525 866.209229,53.538795 
	C867.751221,59.482502 868.808289,64.403206 870.447754,69.121567 
	C870.753906,70.002708 873.728027,70.878876 874.907410,70.392159 
	C886.930908,65.430252 899.521667,67.366447 911.916748,67.014671 
	C915.469482,66.913857 917.434143,68.873512 916.887939,72.273743 
	C916.409790,75.249535 915.023926,78.079506 913.681396,80.999161 
	C913.534302,78.392616 913.750244,75.761223 913.954102,73.128891 
	C914.179810,70.215042 912.948242,68.923470 909.904724,68.886589 
	C897.725220,68.739044 885.558105,68.693115 874.179688,73.923737 
	C871.409668,75.197098 869.862671,74.135788 869.134705,71.862816 
	C867.370056,66.352722 865.715759,60.781605 864.567627,55.123348 
	C864.360229,54.101250 866.682129,51.523777 867.997681,51.401550 
	C877.546265,50.514385 887.134583,50.042126 896.714905,49.522495 
	C898.186035,49.442703 899.678040,49.894421 901.164551,49.930473 
	C918.788818,50.357914 936.413513,50.769497 954.038818,51.151627 
	C968.668213,51.468803 983.298523,51.741333 998.376953,52.094879 
	C998.890930,56.304115 999.297729,60.485298 998.898926,64.588173 
	C998.642761,67.223427 997.200500,69.743378 996.104919,72.627502 
	C987.686951,72.786568 979.447205,72.786674 971.223206,72.425461 
	C965.786499,72.186691 960.372559,71.429176 955.149231,70.923355 
	C952.091187,84.917702 949.060730,98.462402 946.181152,112.039101 
	C941.879578,132.320602 937.118103,152.527817 933.625122,172.950150 
	C930.892456,188.926727 929.632751,205.166992 928.087646,221.325378 
	C927.764099,224.708969 926.932800,226.591965 923.566223,227.223831 
	C919.333923,228.018219 915.166626,229.326721 910.904907,229.758240 
	C904.305847,230.426407 897.654236,230.672150 891.018250,230.850723 
	C884.805359,231.017914 884.225647,230.176910 885.327759,223.902664 
	C887.249451,212.961929 888.959717,201.978500 891.147034,191.090973 
	C898.332581,155.324478 905.692566,119.593010 913.057434,83.448654 
z"/>
<path fill="#9EBFE7" opacity="1.000000" stroke="none" 
	d="
M137.068024,132.488388 
	C137.708588,136.218384 138.632858,140.399460 138.798019,144.610321 
	C138.952515,148.549469 138.094193,152.517715 138.046738,156.477524 
	C137.924988,166.635391 137.878128,176.797729 138.040024,186.954483 
	C138.222610,198.408340 138.648529,209.858566 139.005966,221.309219 
	C139.124969,225.121368 142.531006,229.127106 145.384125,228.943512 
	C148.685074,228.731079 151.744919,224.177307 151.228226,220.246185 
	C150.558273,215.149338 153.994202,211.782379 159.053406,211.867630 
	C161.356598,211.906433 164.003296,211.127029 165.881149,209.830704 
	C167.095642,208.992310 168.057312,206.239548 167.579514,204.897369 
	C167.007584,203.290680 164.959152,201.825241 163.218353,201.132492 
	C161.634903,200.502350 159.599014,201.097397 157.776581,200.962799 
	C152.574600,200.578568 150.571167,197.796066 151.583328,192.674225 
	C151.870422,191.221405 151.978851,189.711502 151.981094,188.227493 
	C152.005371,172.127319 152.010300,156.027008 151.954727,139.926971 
	C151.950272,138.632645 151.284348,137.347687 151.226929,136.045105 
	C151.061737,132.297928 152.375671,129.561554 156.534225,129.003052 
	C158.661743,128.717331 160.782928,128.382706 162.904114,128.051941 
	C166.687927,127.461914 168.873779,124.597656 167.846436,120.920776 
	C167.539261,119.821419 165.842407,118.795143 164.568893,118.360588 
	C162.967850,117.814278 161.150970,117.800323 159.421448,117.748230 
	C152.139984,117.528877 151.379501,112.330132 151.025192,106.833961 
	C150.829102,103.792328 150.869232,100.579239 146.813080,100.054657 
	C143.937912,99.682816 139.470215,103.932266 139.012482,107.259674 
	C137.566498,117.771317 137.608139,116.821411 126.492683,116.334229 
	C111.251289,115.666229 95.939667,116.692299 80.656715,116.815514 
	C76.878174,116.845978 73.014351,116.525452 69.363220,115.645988 
	C68.322182,115.395233 67.580444,112.669159 67.261406,110.972855 
	C66.882141,108.956314 67.863731,106.323868 66.893723,104.862000 
	C65.405403,102.619019 62.754406,101.147530 60.596825,99.348640 
	C58.734436,101.720215 56.586884,103.932167 55.131840,106.531746 
	C54.420750,107.802170 55.042213,109.795685 54.985226,111.459335 
	C54.823372,116.184219 52.882511,117.412285 48.206001,117.360863 
	C45.284821,117.328735 42.042034,118.260437 39.587326,119.791656 
	C38.754692,120.311035 39.085148,125.083023 40.308170,125.988754 
	C42.525681,127.630951 45.834930,127.757713 48.642376,128.660385 
	C50.267456,129.182892 51.802586,129.985168 53.122528,130.863068 
	C50.035015,131.026703 47.198105,131.082748 44.372456,130.930176 
	C39.464451,130.665161 36.043232,126.987892 36.043919,122.139404 
	C36.044582,117.434402 39.216694,114.294739 44.290173,113.985977 
	C44.788563,113.955650 45.289558,113.969627 45.789261,113.959099 
	C52.853386,113.810234 52.853382,113.810074 52.960823,106.907257 
	C53.063133,100.334106 55.965385,96.996223 61.541283,97.038864 
	C66.653351,97.077957 69.771446,100.659126 69.981003,106.731972 
	C70.229385,113.930283 70.229378,113.941582 77.497154,113.943359 
	C95.324265,113.947731 113.151375,113.940636 130.978485,113.938217 
	C132.763290,113.937973 134.548096,113.938187 137.008636,113.938187 
	C137.008636,110.733047 136.919586,108.120224 137.027420,105.515541 
	C137.243210,100.302711 140.116837,97.282684 144.938538,97.044571 
	C149.942337,96.797462 152.974472,99.314316 153.891235,104.477119 
	C153.920334,104.641045 153.937958,104.807014 153.960419,104.972107 
	C155.077301,113.183174 155.077286,113.183182 163.276154,113.968918 
	C167.589081,114.382248 170.852463,117.975380 170.915146,122.379814 
	C170.976196,126.667877 167.495911,130.435928 162.743698,130.887924 
	C160.128952,131.136642 157.471130,130.932449 154.419434,130.932449 
	C154.419434,153.311859 154.419434,175.204910 154.419434,197.999924 
	C157.017410,197.999924 159.603561,197.931625 162.184875,198.014145 
	C167.556122,198.185822 170.923981,201.405487 170.887711,206.231995 
	C170.853241,210.817993 167.190796,214.625519 162.319763,214.942123 
	C159.851929,215.102539 157.365067,214.970169 154.011902,214.970169 
	C154.011902,217.802216 154.090256,220.224197 153.996338,222.639465 
	C153.768265,228.505081 150.454193,231.927689 145.132812,231.903488 
	C140.673630,231.883224 137.019531,227.713989 137.015732,222.420731 
	C136.994385,192.598007 137.014435,162.775223 137.068024,132.488388 
z"/>
<path fill="#9EC0EA" opacity="1.000000" stroke="none" 
	d="
M656.631348,65.103256 
	C656.803894,66.574333 657.144409,68.449081 656.469849,69.826729 
	C650.306702,82.412178 650.989502,96.231995 649.118164,109.583450 
	C648.963623,110.685669 649.283325,111.881233 649.514771,113.006256 
	C650.903137,119.755806 646.862000,123.842163 640.047974,122.927338 
	C638.042053,122.658035 634.541565,122.908875 634.071960,123.964760 
	C633.016968,126.336525 633.184448,129.384094 633.424438,132.106277 
	C633.484009,132.781494 635.691040,133.640549 636.959106,133.729492 
	C638.188599,133.815735 639.467957,132.977417 640.746155,132.619324 
	C646.325562,131.056244 649.524414,133.922729 648.942383,139.535645 
	C647.519836,153.255447 646.435791,167.011459 644.904175,180.718124 
	C644.474243,184.566345 642.616028,188.239838 642.018860,192.087524 
	C640.499939,201.874084 639.677185,211.777924 637.912537,221.514587 
	C636.069214,231.684906 633.711243,241.783112 631.084534,251.783157 
	C629.186218,259.010559 629.008850,259.809052 636.318176,262.187622 
	C641.728638,263.948242 647.403931,265.129639 653.052246,265.786591 
	C654.811646,265.991211 658.092896,264.015076 658.589355,262.396729 
	C661.721802,252.185242 664.545227,241.856689 666.906799,231.438965 
	C668.470032,224.543243 669.057068,217.428467 670.205261,210.432159 
	C670.295410,209.882782 671.361816,209.493622 672.351440,208.999130 
	C670.946716,228.020874 667.966125,246.819321 660.831970,264.727997 
	C659.595032,267.833191 657.820129,269.408295 653.955017,268.538391 
	C646.376038,266.832642 638.656372,265.760376 631.012878,264.329559 
	C626.973511,263.573364 625.748352,261.586670 626.987427,257.223694 
	C635.349915,227.777878 639.927917,197.626465 643.193481,167.248062 
	C644.061646,159.172241 645.047424,151.108826 645.873840,143.028931 
	C646.088745,140.927872 645.906311,138.786179 645.906311,135.906281 
	C640.560730,136.278427 635.717224,136.615616 630.191650,137.000290 
	C630.191650,131.765137 630.043335,126.994743 630.336975,122.251701 
	C630.386230,121.456627 632.291382,120.286018 633.441650,120.148682 
	C636.068665,119.835014 638.784119,119.823608 641.418213,120.108955 
	C645.674011,120.569977 646.919800,119.142227 647.225037,114.665283 
	C648.058472,102.444557 649.386597,90.229652 651.227783,78.120239 
	C651.902405,73.683014 654.570007,69.548805 656.631348,65.103256 
z"/>
<path fill="#9EBFE7" opacity="1.000000" stroke="none" 
	d="
M53.017532,133.483704 
	C55.798145,135.380280 56.309509,138.111618 54.793583,141.436295 
	C54.199509,142.739182 54.042881,144.334763 54.037376,145.798355 
	C53.983513,160.123062 53.986561,174.448120 54.032215,188.772873 
	C54.036308,190.056503 54.221649,191.437286 54.718853,192.604202 
	C56.574306,196.958817 55.155727,199.490051 50.493034,200.007004 
	C48.037563,200.279266 45.104748,200.011673 43.290661,201.279846 
	C41.345917,202.639359 39.380630,205.516418 39.381527,207.730392 
	C39.382710,210.661865 41.963589,212.207962 45.430454,212.080841 
	C54.191555,211.759644 54.326904,212.312805 55.181923,221.272430 
	C55.404301,223.602692 57.458462,226.255463 59.438221,227.731186 
	C60.595734,228.593994 63.836826,228.099503 65.136665,227.013763 
	C67.374390,225.144623 68.659019,222.563660 66.897041,219.135941 
	C65.290627,216.010864 68.433174,212.442291 72.511276,212.637604 
	C76.465935,212.826965 80.389816,213.811203 84.340225,213.906372 
	C92.996765,214.114883 101.662872,214.070206 110.322220,213.939514 
	C113.329857,213.894135 116.338600,213.355972 119.329407,212.922562 
	C122.300598,212.491974 125.359642,208.167191 124.956131,205.019379 
	C124.469955,201.226624 121.719948,200.958984 118.674278,200.973541 
	C108.347260,201.022903 98.019844,200.990356 87.692581,200.989914 
	C83.269577,200.989716 78.846535,201.004715 74.423592,200.988907 
	C69.470444,200.971207 67.058395,198.731628 67.034470,193.650604 
	C66.958412,177.493820 67.062599,161.336151 66.976959,145.179459 
	C66.958557,141.707458 66.131218,138.222809 66.304497,134.775558 
	C66.368675,133.498520 68.237617,132.312195 69.655914,131.054245 
	C70.028343,153.115692 70.028343,175.207382 70.028343,197.963699 
	C74.365570,197.963699 78.140961,197.963531 81.916359,197.963715 
	C94.235420,197.964279 106.554604,197.933365 118.873505,197.978378 
	C125.501442,198.002594 128.883926,200.904877 128.917694,206.408737 
	C128.947021,211.188690 124.523224,214.973389 118.757019,214.985352 
	C105.106232,215.013672 91.455330,214.977829 77.804512,214.998428 
	C68.744095,215.012100 70.090736,214.305023 69.966995,222.624390 
	C69.861710,229.702316 64.006203,233.962845 57.888084,230.804199 
	C55.616470,229.631424 54.036098,226.250229 53.139900,223.545059 
	C52.356831,221.181366 52.976593,218.352921 52.976593,214.967270 
	C49.663330,214.967270 46.891232,215.083099 44.132286,214.941925 
	C39.148563,214.686951 35.950871,211.329636 36.055130,206.658722 
	C36.172955,201.379974 39.138035,198.284042 44.359829,197.987579 
	C52.972626,197.498596 52.970028,197.498596 52.970119,188.884872 
	C52.970314,170.572861 52.973488,152.260864 53.017532,133.483704 
z"/>
<path fill="#9EC0EA" opacity="1.000000" stroke="none" 
	d="
M470.991028,135.993011 
	C467.205261,135.228912 467.281586,132.219254 467.377472,129.422226 
	C467.594971,123.076660 465.750671,120.758270 459.583954,121.044090 
	C449.994049,121.488579 440.419861,122.284691 430.842438,122.979385 
	C427.145966,123.247505 425.856476,124.697403 428.502289,128.025848 
	C435.078186,136.298416 435.092194,146.015488 433.503174,155.575027 
	C430.795013,171.867371 427.151978,188.002106 424.196075,204.256607 
	C423.050659,210.555283 422.633331,216.992630 422.025970,223.380280 
	C421.716553,226.634308 422.805939,228.125336 426.668915,227.763733 
	C433.541595,227.120438 440.482544,227.174301 447.396790,227.017395 
	C453.157379,226.886673 454.533295,225.206100 455.084717,219.684753 
	C456.299530,207.520828 457.582489,195.342010 459.517548,183.278320 
	C461.206757,172.747543 463.823151,162.365295 466.044617,151.920547 
	C466.180328,151.282593 466.258209,150.469086 466.679504,150.080475 
	C470.847656,146.235962 475.082672,142.463943 480.272247,137.795746 
	C480.635254,140.495667 480.817139,141.848312 480.992126,143.601135 
	C473.718353,145.138763 468.432434,150.188583 467.068176,157.582275 
	C463.729553,175.675766 460.371490,193.767197 457.279266,211.903427 
	C456.615570,215.796082 456.878113,219.880646 457.024506,223.865402 
	C457.121246,226.499680 456.366394,227.983124 453.611267,228.212875 
	C443.219299,229.079453 432.837036,230.110367 422.428925,230.659866 
	C421.393066,230.714539 419.137726,227.813416 419.261169,226.448059 
	C420.125427,216.889618 421.033966,207.295532 422.751038,197.862610 
	C425.750122,181.387039 429.444580,165.039291 432.633392,148.596436 
	C433.971619,141.695923 430.380920,136.058136 426.994751,130.494019 
	C426.479706,129.647629 425.736633,128.943466 425.170715,128.123993 
	C422.252899,123.898941 423.036530,121.653450 428.032043,121.149063 
	C439.410309,120.000214 450.841827,119.353867 462.202789,118.070435 
	C467.538727,117.467644 469.372162,119.965340 469.916992,124.534035 
	C470.074036,125.851036 470.224030,127.168884 470.630798,129.224457 
	C470.919922,131.972702 470.955475,133.982864 470.991028,135.993011 
z"/>
<path fill="#9EC0EA" opacity="1.000000" stroke="none" 
	d="
M680.561035,134.180328 
	C680.701904,130.736099 681.908813,129.622314 685.889404,130.999023 
	C689.470642,132.237625 693.883667,132.448975 697.520996,131.517365 
	C699.134827,131.104019 699.742065,126.760658 700.806213,124.201210 
	C699.189941,123.636116 697.603577,122.716080 695.951416,122.576942 
	C692.040894,122.247620 688.078125,122.482643 684.183350,122.058777 
	C683.066650,121.937248 681.422058,120.447121 681.265320,119.398415 
	C681.093933,118.250702 682.059326,116.533745 683.054932,115.672836 
	C693.085999,106.999382 701.771362,97.290688 707.009155,84.923935 
	C709.223511,79.695572 711.749756,74.477646 713.002319,68.996330 
	C714.372375,63.000858 713.321899,56.898151 709.937134,51.490570 
	C709.443787,50.702343 708.691772,49.831532 707.866150,49.532589 
	C696.272644,45.334469 684.150940,44.295879 673.284668,49.989075 
	C668.932739,52.269207 662.043457,55.271236 661.766052,62.797142 
	C661.737549,63.571167 659.159546,64.251228 657.337036,64.953346 
	C661.576538,53.332657 670.660522,46.969879 682.384644,44.283375 
	C691.799622,42.126007 701.221558,42.126377 709.574585,48.101646 
	C717.760376,53.957298 717.230408,62.652050 715.340271,70.710983 
	C711.044861,89.025505 700.778015,103.907829 686.613525,116.164276 
	C685.539429,117.093643 684.547729,118.118225 682.545166,120.024277 
	C690.645386,120.024277 697.500916,120.024277 705.641113,120.024277 
	C703.958252,125.075737 702.791016,129.308670 701.049194,133.290192 
	C700.618713,134.274277 698.315186,134.918564 696.883667,134.899399 
	C691.585449,134.828354 686.291809,134.414490 680.561035,134.180328 
z"/>
<path fill="#9EC0EA" opacity="1.000000" stroke="none" 
	d="
M482.068115,145.345825 
	C483.670776,146.002930 485.953186,146.608780 486.880310,148.072830 
	C490.214264,153.337692 495.047394,154.933868 500.068542,151.145493 
	C504.208252,148.022186 507.894348,144.221298 511.421570,140.389389 
	C513.770691,137.837341 512.305420,129.899780 509.536377,127.633659 
	C509.033386,127.222031 508.556732,126.749954 508.168488,126.230637 
	C502.952209,119.253326 497.417236,118.111412 490.050415,122.636665 
	C486.835327,124.611610 483.735382,126.774025 480.225342,128.850327 
	C479.879730,128.435928 479.891907,128.022491 480.239166,127.184708 
	C481.408234,125.857719 482.242249,124.955093 483.076294,124.052460 
	C484.272156,123.234436 485.468048,122.416405 487.233765,121.290215 
	C491.876099,119.680222 495.948547,118.378372 500.020996,117.076523 
	C507.701324,117.285263 511.212769,120.047081 513.017578,127.513367 
	C513.756470,130.570190 514.705566,133.695740 514.674072,136.780975 
	C514.649414,139.189758 513.991882,142.518875 512.340515,143.816788 
	C506.533875,148.380692 500.280060,152.411377 493.982971,156.299423 
	C491.083649,158.089539 488.641876,156.760605 487.009338,153.759430 
	C485.508362,151.000092 483.763489,148.373398 482.068115,145.345825 
z"/>
<path fill="#9EC0EA" opacity="1.000000" stroke="none" 
	d="
M672.956177,206.551727 
	C672.968811,201.086823 672.847107,195.203430 673.179565,189.345810 
	C673.592041,182.080750 674.435120,174.841202 674.993225,167.583023 
	C675.729736,158.004471 676.299194,148.412354 677.136108,138.843155 
	C677.248230,137.560516 678.501892,136.377716 679.599609,135.080414 
	C677.655945,158.722977 675.339661,182.433823 672.956177,206.551727 
z"/>
<path fill="#9EBFE7" opacity="1.000000" stroke="none" 
	d="
M746.931152,196.558914 
	C747.097961,190.364792 747.133606,183.746399 747.648926,177.165573 
	C747.910706,173.822739 748.945984,170.524002 749.798462,167.248764 
	C750.568420,164.290588 751.565613,161.391556 752.736572,158.233536 
	C751.146301,169.736374 749.281006,181.471939 747.419922,193.208160 
	C747.264832,194.186523 747.138245,195.169403 746.931152,196.558914 
z"/>
<path fill="#9EBFE7" opacity="1.000000" stroke="none" 
	d="
M768.015442,208.571472 
	C764.727722,209.877167 761.446777,210.984787 758.080750,211.681076 
	C755.155823,212.286133 752.134644,212.425919 749.085754,212.418793 
	C753.780090,210.222168 758.480713,208.169327 763.352783,206.675888 
	C764.622437,206.286682 766.426575,207.641129 768.015442,208.571472 
z"/>
<path fill="#D6EFFB" opacity="1.000000" stroke="none" 
	d="
M499.743164,116.781052 
	C495.948547,118.378372 491.876099,119.680222 487.436157,121.045486 
	C489.071564,116.190041 491.583710,115.253136 499.743164,116.781052 
z"/>
<path fill="#D6EFFB" opacity="1.000000" stroke="none" 
	d="
M470.997498,135.996033 
	C470.955475,133.982864 470.919922,131.972702 470.863251,129.536880 
	C472.660217,129.099152 474.478271,129.087082 476.650269,129.437225 
	C475.639038,131.830078 474.273895,133.860703 472.908752,135.891327 
	C472.908752,135.891327 472.906769,135.919067 472.598541,135.919952 
	C471.863556,135.950531 471.436798,135.980240 471.010040,136.009949 
	C471.010040,136.009949 471.003998,135.999069 470.997498,135.996033 
z"/>
<path fill="#9EC0EA" opacity="1.000000" stroke="none" 
	d="
M473.284637,135.922852 
	C474.273895,133.860703 475.639038,131.830078 477.099518,129.477692 
	C477.868073,129.045639 478.541260,128.935333 479.555084,128.854736 
	C478.774109,132.084915 477.994415,135.586914 473.284637,135.922852 
z"/>
<path fill="#9EBFE7" opacity="1.000000" stroke="none" 
	d="
M70.479126,131.025818 
	C73.294769,127.209610 77.064011,128.934250 80.896004,130.427582 
	C77.653229,130.868652 74.294296,130.945786 70.479126,131.025818 
z"/>
<path fill="#9EBFE7" opacity="1.000000" stroke="none" 
	d="
M748.066956,211.550873 
	C742.762268,210.503769 745.424377,206.598221 745.836304,203.217041 
	C746.765808,205.689743 747.385925,208.424820 748.066956,211.550873 
z"/>
<path fill="#9EBFE7" opacity="1.000000" stroke="none" 
	d="
M129.422119,130.858292 
	C131.420059,127.715469 134.089783,128.407425 136.898849,130.691742 
	C134.596741,131.028748 132.229492,130.978714 129.422119,130.858292 
z"/>
<path fill="#D6EFFB" opacity="1.000000" stroke="none" 
	d="
M482.700714,124.042091 
	C482.242249,124.955093 481.408234,125.857719 480.287018,126.875793 
	C480.774933,126.004730 481.550049,125.018227 482.700714,124.042091 
z"/>
<path fill="#F2F6FA" opacity="1.000000" stroke="none" 
	d="
M81.011307,34.022278 
	C77.017830,34.019798 73.516747,34.135506 70.026970,33.986416 
	C65.097580,33.775818 61.208168,29.954945 61.196194,25.538609 
	C61.184437,21.202080 65.184769,17.144440 70.047386,17.122694 
	C92.022148,17.024416 113.997971,16.993179 135.972443,17.114201 
	C142.080093,17.147837 145.172104,20.419415 145.095978,25.893919 
	C145.020691,31.305765 141.920029,33.998299 135.447815,34.013126 
	C117.468208,34.054314 99.488441,34.024200 81.011307,34.022278 
z"/>
<path fill="#F5F7F8" opacity="1.000000" stroke="none" 
	d="
M300.323547,211.252594 
	C300.821259,205.148224 301.146881,199.319794 302.334778,193.672745 
	C308.861267,162.647278 315.732208,131.693970 322.186249,100.653786 
	C324.242432,90.764725 325.543701,80.706055 326.837463,70.679451 
	C327.188873,67.955986 328.168335,66.658447 330.677155,66.602493 
	C337.306183,66.454651 344.087067,65.535172 350.535461,66.588341 
	C361.035675,68.303261 366.667633,76.597549 367.995209,89.687370 
	C371.336304,122.629646 364.375732,153.865723 351.664795,183.935486 
	C347.058746,194.831757 340.311859,204.610184 329.314819,210.566391 
	C319.833893,215.701416 310.287170,215.385880 300.323547,211.252594 
z"/>
<path fill="#F3F6F9" opacity="1.000000" stroke="none" 
	d="
M574.609985,163.614410 
	C572.969360,175.860229 571.203796,187.675507 570.051636,199.550323 
	C569.376587,206.506958 566.104126,210.225128 558.417480,210.962585 
	C552.003662,211.577942 548.153992,208.855347 547.258911,201.614456 
	C544.569336,179.855789 547.167969,158.842392 557.914673,139.373108 
	C562.204773,131.600952 573.086792,129.547516 579.634705,135.088364 
	C580.479370,135.803116 580.522949,138.048950 580.225525,139.432495 
	C578.516785,147.383499 576.593262,155.288345 574.609985,163.614410 
z"/>
<path fill="#EFF6F9" opacity="1.000000" stroke="none" 
	d="
M681.984741,100.350311 
	C683.006104,91.206810 683.576111,82.398056 685.248169,73.803703 
	C686.069702,69.581032 688.373047,65.303070 691.096497,61.931053 
	C692.579407,60.095039 696.683411,58.960384 698.972290,59.640293 
	C700.792175,60.180889 702.705688,63.931618 702.759583,66.298569 
	C703.032898,78.297714 697.158691,87.899055 689.702026,96.706352 
	C688.306519,98.354706 686.932983,100.060760 685.310669,101.464439 
	C684.214966,102.412506 682.414856,104.174942 681.984741,100.350311 
z"/>
<path fill="#9EC0EA" opacity="1.000000" stroke="none" 
	d="
M471.156738,136.231598 
	C471.436798,135.980240 471.863556,135.950531 472.610962,135.916931 
	C472.388885,136.093109 471.846191,136.273178 471.156738,136.231598 
z"/>
</svg>