<svg version="1.1" id="Layer_1" xmlns="http://www.w3.org/2000/svg" xmlns:xlink="http://www.w3.org/1999/xlink" x="0px" y="0px"
	 width="100%" viewBox="0 0 213 312" enable-background="new 0 0 213 312" xml:space="preserve">
<path fill="#F6F7F8" opacity="1.000000" stroke="none" 
	d="
M214.000000,4.000000 
	C214.000000,107.000008 214.000000,210.000015 214.000000,313.000000 
	C206.584763,313.000000 199.261124,313.000000 191.640076,312.714355 
	C193.268677,310.660156 195.194672,308.891602 197.060333,307.061523 
	C197.000000,307.000000 197.122879,307.120636 197.460007,307.056580 
	C204.425888,301.708282 205.839874,294.261780 205.846954,286.485901 
	C205.914627,212.181290 205.885559,137.876587 205.883209,63.571911 
	C205.883041,58.240639 206.080521,52.899490 205.825409,47.580231 
	C205.352478,37.719097 202.676895,28.932482 192.985306,24.030487 
	C193.000305,24.003389 192.946182,24.033512 192.743393,23.757153 
	C189.331100,22.598148 186.121582,21.715506 182.504517,20.823936 
	C180.727341,20.853584 179.357697,20.892159 177.619995,20.939318 
	C175.533737,22.973808 173.815536,24.999716 172.050446,27.419662 
	C173.026840,30.206110 174.050125,32.598518 175.216415,35.252724 
	C175.916718,35.681778 176.473999,35.849026 177.218292,36.050152 
	C177.405289,36.084026 177.785278,36.076633 177.844635,36.305145 
	C177.904007,36.533657 178.025055,36.990086 178.061249,37.341026 
	C179.407928,39.107590 180.718399,40.523216 181.869476,42.304016 
	C181.807083,45.779018 181.904083,48.888847 181.657745,52.197868 
	C180.876450,54.590660 180.057663,56.783928 180.055740,58.977905 
	C179.989578,134.567871 180.000595,210.157928 180.000732,285.747955 
	C180.000732,286.746948 180.042419,287.747772 179.996246,288.744568 
	C179.837601,292.170319 181.461639,292.382782 184.218063,291.115662 
	C184.711105,291.438019 184.901962,291.703827 184.854370,292.333710 
	C182.774902,294.327972 180.851593,296.017273 178.468323,297.766357 
	C135.846573,297.853455 93.684792,297.889893 51.523010,297.897430 
	C45.694691,297.898468 39.866344,297.756348 34.017570,297.361877 
	C33.330074,296.360931 32.663013,295.678650 31.996990,294.527893 
	C31.998375,215.643311 32.007114,137.227142 31.957165,58.811005 
	C31.955717,56.540775 31.332945,54.270935 31.124830,51.698845 
	C32.208790,48.498230 30.389042,48.725079 28.779581,49.453262 
	C27.692518,49.945095 26.916716,51.124882 26.001411,51.587917 
	C25.816935,47.923203 26.504639,45.424709 30.431067,44.916126 
	C31.625319,44.761433 32.686043,43.575897 33.807926,42.862495 
	C32.870232,41.907227 31.932533,40.951962 30.996639,39.650375 
	C31.007505,38.616058 31.016569,37.928066 31.392958,37.190048 
	C32.499210,37.169292 33.238136,37.198563 34.000034,37.591782 
	C34.604969,38.612247 35.125427,39.763378 35.778927,39.844646 
	C39.879650,40.354610 44.010006,40.626286 48.276138,41.236000 
	C52.099514,48.642982 58.251884,52.047604 66.230835,53.329468 
	C67.681450,53.660114 68.865494,53.753803 70.504883,53.910370 
	C75.312820,54.047001 79.665413,54.120747 83.684906,54.438789 
	C79.752258,54.790386 76.099632,54.563740 72.572144,55.124428 
	C70.286842,55.487675 68.184387,57.001286 66.096481,58.393166 
	C68.024422,59.191418 69.850761,59.922115 71.688133,59.951000 
	C95.208443,60.320663 118.730095,60.634487 142.252487,60.759903 
	C143.496719,60.766541 144.750610,58.963284 145.996155,57.647606 
	C145.660538,55.954716 145.328766,54.616810 145.206879,53.127190 
	C145.630722,52.708557 145.844681,52.441643 146.367859,52.123726 
	C147.211456,51.771179 147.745865,51.469635 148.472000,51.172432 
	C148.663727,51.176765 149.032898,51.072723 149.391205,51.051460 
	C165.805603,43.965096 168.261780,19.903833 154.052856,8.767717 
	C152.368668,7.447758 150.611008,6.221569 149.107651,4.567964 
	C170.885269,4.122675 192.442627,4.061337 214.000000,4.000000 
M49.350548,201.029770 
	C47.564648,201.096252 45.778751,201.162750 43.411823,201.160690 
	C42.949444,201.456970 42.487064,201.753250 41.333858,202.150238 
	C35.015724,208.794357 36.345181,215.826263 44.514126,217.751190 
	C47.492252,218.452942 50.743088,217.997360 53.937653,218.707840 
	C53.993332,219.131882 54.049015,219.555923 54.006779,220.867203 
	C53.997677,222.687286 53.363541,224.835464 54.110592,226.258636 
	C55.630104,229.153320 57.393394,232.590866 60.023655,234.003891 
	C61.882774,235.002640 66.284073,233.899399 67.832626,232.183868 
	C69.792015,230.013214 69.968773,226.255585 70.990295,223.207855 
	C71.598427,221.393448 72.352379,219.627930 73.548386,217.900009 
	C73.715508,217.866898 73.882622,217.833786 74.789612,217.891739 
	C75.533119,217.863678 76.276634,217.835617 77.945244,217.940781 
	C92.095276,217.957672 106.245583,218.030136 120.395210,217.962463 
	C125.610649,217.937515 129.797195,214.123276 129.913895,209.663544 
	C130.034729,205.046570 125.695808,201.003830 120.372772,200.985611 
	C105.889603,200.936050 91.406143,200.968414 76.922798,200.968307 
	C75.149490,200.968292 73.376183,200.968323 71.027916,200.968323 
	C71.027916,178.206696 71.027916,156.114777 71.000221,133.999390 
	C71.000221,133.999390 71.021736,134.028290 71.934486,134.022598 
	C75.294281,133.945480 78.654076,133.868362 82.943581,133.895264 
	C98.622482,133.859406 114.301384,133.823547 130.860916,133.928421 
	C133.228912,133.978424 135.596924,134.028427 138.027618,134.553619 
	C138.027618,134.553619 138.118759,135.024139 138.022812,135.952301 
	C138.016434,165.600403 138.001694,195.248505 138.011185,224.896606 
	C138.012955,230.422043 141.580185,234.704117 146.223877,234.889847 
	C151.059418,235.083252 154.904587,230.699997 155.006058,224.842850 
	C155.042496,222.740112 155.011917,220.636200 155.011917,217.959869 
	C158.362381,217.959869 160.999252,218.123535 163.608246,217.923691 
	C168.166336,217.574554 171.911301,213.615555 171.879227,209.442291 
	C171.842041,204.603592 168.418671,201.197067 163.301865,201.020264 
	C160.709869,200.930710 158.112259,201.004608 155.369537,201.004608 
	C155.369537,178.300110 155.369537,156.412552 155.369537,133.938126 
	C158.355408,133.938126 160.995407,134.128433 163.598007,133.897385 
	C168.582779,133.454849 172.192673,129.469879 171.901367,125.026207 
	C171.573868,120.030609 168.314240,117.099045 162.922745,116.951218 
	C155.476486,116.747055 155.476181,116.747086 155.007614,109.124031 
	C154.987183,108.791664 155.008453,108.454964 154.965897,108.126022 
	C154.263931,102.699150 151.080643,99.829460 146.012253,100.045708 
	C141.008148,100.259232 138.214325,103.368599 137.998444,108.941132 
	C137.898743,111.514732 137.769485,114.087189 137.640762,116.945930 
	C117.210426,116.945930 97.401474,116.952522 77.592514,116.942177 
	C71.108635,116.938789 71.108643,116.918648 70.979416,110.333809 
	C70.851524,103.816788 67.865944,100.130890 62.643318,100.042336 
	C56.895489,99.944885 54.040154,103.320267 53.961975,110.304863 
	C53.888748,116.847229 53.888748,116.847290 47.398251,116.952675 
	C46.732090,116.963493 46.064404,116.947510 45.399975,116.986923 
	C40.452354,117.280434 36.936066,120.934013 37.053665,125.646255 
	C37.165764,130.138123 40.657074,133.677490 45.379608,133.928238 
	C48.204727,134.078247 51.040619,134.025360 53.924725,134.717010 
	C53.970375,135.151566 54.016026,135.586105 53.977566,136.950470 
	C53.976826,156.419205 54.002338,175.888016 53.934055,195.356522 
	C53.927349,197.268127 53.344585,199.177719 52.528561,201.079636 
	C52.362583,201.097214 52.196606,201.114792 51.368874,201.021164 
	C50.924732,201.046783 50.480591,201.072403 49.350548,201.029770 
M82.115257,138.784195 
	C83.598495,139.522232 85.073349,140.880569 86.566299,140.900772 
	C99.198639,141.071609 111.836761,141.120300 124.466240,140.864792 
	C126.329178,140.827118 128.155945,139.001465 129.963409,137.175049 
	C128.897507,136.452240 127.837982,135.111359 126.764748,135.100311 
	C112.978783,134.958176 99.189827,134.934967 85.405312,135.135483 
	C84.256676,135.152191 83.134720,137.003036 82.115257,138.784195 
z"/>
<path fill="#8EBDFC" opacity="1.000000" stroke="none" 
	d="
M146.058655,52.174728 
	C145.844681,52.441643 145.630722,52.708557 144.842102,53.092667 
	C142.827454,53.417793 141.387466,53.625721 139.633850,53.579102 
	C138.672562,53.218781 138.024979,53.021091 137.377213,53.020576 
	C116.183136,53.003716 94.989006,52.991543 73.795029,53.041092 
	C72.545906,53.044010 71.298004,53.566689 70.049530,53.847492 
	C68.865494,53.753803 67.681450,53.660114 66.178459,52.959091 
	C60.985161,48.700050 54.453033,45.994034 51.684601,41.141003 
	C48.682686,35.878685 45.353184,35.937851 40.933300,35.975716 
	C36.621361,36.012657 32.307926,35.945805 27.997766,36.042015 
	C27.351845,36.056431 26.720253,36.712826 25.856716,37.305450 
	C24.800674,37.708805 23.969950,37.878960 22.773968,38.067657 
	C19.029173,39.508953 17.882334,41.978653 18.283745,45.634506 
	C18.764927,50.016872 18.971378,54.449989 18.973623,58.861294 
	C19.012699,135.671051 19.001549,212.480820 19.003349,289.290588 
	C19.003508,295.988251 20.596275,298.435394 27.228540,299.429016 
	C31.217125,300.026581 35.419758,299.033295 39.526443,299.029602 
	C83.846146,298.989899 128.165894,298.999298 172.485626,299.024841 
	C174.299149,299.025879 176.148102,299.145081 177.919830,299.506683 
	C186.038803,301.163727 190.000275,298.054016 190.000473,289.890076 
	C190.002441,212.747070 189.997192,135.604065 190.030991,58.461082 
	C190.031998,56.157444 190.241547,53.814991 190.690216,51.557480 
	C192.270218,43.607479 189.645050,33.896950 177.785278,36.076633 
	C177.785278,36.076633 177.405289,36.084026 177.051544,35.807796 
	C176.156326,35.351353 175.614868,35.171139 175.073410,34.990921 
	C174.050125,32.598518 173.026840,30.206110 172.272461,27.423754 
	C172.541336,27.033806 172.986984,27.034576 173.144440,27.178608 
	C173.540222,26.884560 173.778549,26.446478 174.298096,25.868721 
	C175.717682,24.818403 176.856094,23.907764 178.402435,22.998781 
	C181.210617,23.003187 183.610870,23.005939 186.397018,23.058899 
	C188.837341,23.417244 190.891754,23.725378 192.946182,24.033512 
	C192.946182,24.033512 193.000305,24.003389 193.030884,24.370504 
	C193.606064,25.555286 194.031967,26.492010 194.713928,27.171906 
	C200.513809,32.954338 203.188141,39.556458 203.158875,48.093010 
	C202.896561,124.555435 203.004120,201.019135 203.028992,277.482452 
	C203.029694,279.629272 203.055511,281.836304 203.526657,283.911530 
	C204.963837,290.241730 202.783295,295.614899 199.668991,300.896881 
	C198.542404,302.807648 197.955856,305.036774 197.122879,307.120636 
	C197.122879,307.120636 197.000000,307.000000 196.675903,307.023254 
	C192.901199,309.030975 189.450607,311.015503 186.000000,313.000000 
	C131.312439,313.000000 76.624878,313.000000 21.425179,312.641174 
	C17.960833,310.850830 15.008619,309.419342 11.987104,307.808960 
	C11.917801,307.630127 11.867348,307.249817 11.879311,306.872559 
	C9.739642,301.316803 7.607180,296.130157 5.414512,290.969055 
	C5.106071,290.243042 4.503199,289.642090 4.019328,288.612305 
	C4.012492,287.498962 4.022936,286.756561 4.317507,285.708618 
	C4.736601,283.425018 4.989018,281.446991 4.989569,279.468872 
	C5.009731,206.991348 4.977269,134.513794 5.050576,62.036335 
	C5.058119,54.578697 5.665849,47.121071 6.031642,39.665234 
	C6.071325,38.856403 6.139129,37.917049 6.559474,37.279137 
	C10.913677,30.671242 16.060579,25.073254 24.191553,23.042671 
	C25.920673,22.610849 27.416132,21.243395 29.480696,20.237854 
	C35.639748,20.134539 41.337345,20.100370 47.242851,20.295898 
	C48.040150,20.394922 48.819511,20.460997 49.189842,20.103436 
	C53.338501,16.097857 57.471790,12.073399 61.494404,7.942228 
	C62.544796,6.863489 63.197948,5.397948 64.497421,4.057241 
	C90.626640,4.004012 116.292000,3.990915 141.957245,4.038525 
	C143.321030,4.041055 144.683853,4.556227 146.066467,5.191230 
	C147.960693,7.314216 149.867599,9.046115 151.705078,10.848784 
	C160.429001,19.407459 166.154327,25.893368 157.662338,39.495052 
	C155.942551,42.249672 153.044357,44.243217 150.943832,46.796879 
	C149.987518,47.959488 149.650711,49.631680 149.032898,51.072723 
	C149.032898,51.072723 148.663727,51.176765 148.130646,51.138649 
	C147.084579,51.458599 146.571625,51.816666 146.058655,52.174728 
M64.405296,21.116505 
	C61.853943,22.404228 59.995468,23.961060 62.103359,27.781206 
	C62.094414,28.505924 62.085468,29.230644 61.518108,30.412420 
	C60.372463,33.926838 61.938133,35.535862 65.674446,35.885136 
	C65.674446,35.885136 65.984428,36.010166 66.097931,36.771351 
	C69.863373,37.846836 73.599998,39.710758 77.399673,39.849613 
	C88.688202,40.262138 100.001549,39.995377 111.305191,39.994755 
	C119.450462,39.994312 127.598213,40.119362 135.740234,39.956612 
	C142.572754,39.820030 145.695862,37.474648 145.942963,32.407516 
	C145.942963,32.407516 146.044678,31.985182 146.347748,31.832697 
	C146.412125,31.741871 146.550964,31.616262 146.527679,31.566387 
	C146.438873,31.376295 146.297791,31.210629 146.125275,30.221409 
	C146.158142,29.134739 146.191010,28.048071 146.469498,26.754444 
	C146.603043,26.411974 146.485489,26.165323 145.827972,25.436535 
	C145.495895,24.649294 145.163818,23.862055 145.205063,22.798765 
	C144.779312,22.554047 144.353561,22.309328 144.009521,22.022675 
	C144.009521,22.022675 143.940277,22.084148 143.848663,21.321636 
	C141.774200,20.550726 139.704437,19.124399 137.624573,19.109535 
	C114.963097,18.947582 92.299820,18.965908 69.637955,19.096170 
	C68.114738,19.104925 66.598991,20.414196 65.127441,21.057236 
	C65.127441,21.057236 65.129517,21.134909 64.405296,21.116505 
M148.500000,302.001221 
	C112.683701,302.001221 76.867409,302.000885 41.051109,302.002563 
	C39.718651,302.002625 38.330242,301.795410 37.071888,302.106049 
	C36.108288,302.343872 35.308983,303.247314 34.436615,303.854736 
	C35.378532,304.563019 36.228302,305.541595 37.288456,305.903015 
	C38.335079,306.259766 39.594479,305.997864 40.760532,305.997955 
	C57.252693,305.999176 73.744858,305.998749 90.237015,305.998749 
	C117.390770,305.998749 144.544739,306.042084 171.697861,305.908203 
	C173.656296,305.898560 175.608368,304.596771 177.563385,303.895721 
	C175.538773,303.264221 173.528763,302.149811 171.486923,302.088104 
	C164.163773,301.866608 156.829849,302.001221 148.500000,302.001221 
z"/>
<path fill="#F5F7F8" opacity="1.000000" stroke="none" 
	d="
M47.034946,20.066202 
	C41.337345,20.100370 35.639748,20.134539 29.073301,20.151546 
	C16.583059,20.683430 6.203627,28.569635 4.405896,37.946140 
	C3.016812,37.976791 2.008406,37.988396 1.000000,38.000000 
	C1.000000,26.979105 1.000000,15.958210 1.378354,4.822195 
	C2.512120,4.472128 3.267606,4.031934 4.022932,4.032209 
	C23.643042,4.039357 43.263134,4.092282 62.669411,4.390525 
	C54.879032,7.348502 49.921547,12.672030 47.034946,20.066202 
z"/>
<path fill="#D6EFFB" opacity="1.000000" stroke="none" 
	d="
M1.000000,38.468658 
	C2.008406,37.988396 3.016812,37.976791 4.415329,38.368202 
	C4.525519,40.567802 4.001211,42.364338 4.000810,44.160988 
	C3.982794,124.778694 4.010811,205.396408 4.033380,286.014130 
	C4.022936,286.756561 4.012492,287.498962 3.989004,288.997131 
	C3.909488,290.521393 3.843017,291.289886 3.426047,292.053223 
	C2.383699,292.032013 1.691850,292.015991 1.000000,292.000000 
	C1.000000,207.645767 1.000000,123.291542 1.000000,38.468658 
z"/>
<path fill="#000000" opacity="1.000000" stroke="none" 
	d="
M62.883228,4.137306 
	C43.263134,4.092282 23.643042,4.039357 4.022932,4.032209 
	C3.267606,4.031934 2.512120,4.472128 1.378354,4.353538 
	C1.048076,2.345619 0.384622,0.878798 3.500247,0.885515 
	C72.833260,1.035011 142.166672,0.999194 211.500000,1.006031 
	C212.828079,1.006162 214.627686,0.507053 214.000000,3.500000 
	C192.442627,4.061337 170.885269,4.122675 148.750885,4.574014 
	C147.464966,4.920260 146.756042,4.876505 146.047134,4.832750 
	C144.683853,4.556227 143.321030,4.041055 141.957245,4.038525 
	C116.292000,3.990915 90.626640,4.004012 64.207878,3.989220 
	C63.264038,4.028443 63.073631,4.082874 62.883228,4.137306 
z"/>
<path fill="#F1F6FB" opacity="1.000000" stroke="none" 
	d="
M1.000000,292.468903 
	C1.691850,292.015991 2.383699,292.032013 3.492111,292.453583 
	C4.528181,298.780579 6.694224,303.846710 11.867348,307.249817 
	C11.867348,307.249817 11.917801,307.630127 12.159422,308.084198 
	C14.267361,310.025513 16.133678,311.512756 18.000000,313.000000 
	C12.399495,313.000000 6.798990,313.000000 1.000000,313.000000 
	C1.000000,306.313568 1.000000,299.625702 1.000000,292.468903 
z"/>
<path fill="#A0C1E9" opacity="1.000000" stroke="none" 
	d="
M186.416656,313.000000 
	C189.450607,311.015503 192.901199,309.030975 196.736237,307.084778 
	C195.194672,308.891602 193.268677,310.660156 191.171341,312.714355 
	C189.611115,313.000000 188.222214,313.000000 186.416656,313.000000 
z"/>
<path fill="#A0BCEA" opacity="1.000000" stroke="none" 
	d="
M18.375000,313.000000 
	C16.133678,311.512756 14.267361,310.025513 12.228724,308.263062 
	C15.008619,309.419342 17.960833,310.850830 20.956522,312.641174 
	C20.250000,313.000000 19.500000,313.000000 18.375000,313.000000 
z"/>
<path fill="#8DBDFB" opacity="1.000000" stroke="none" 
	d="
M54.061676,136.020660 
	C54.016026,135.586105 53.970375,135.151566 54.153160,134.188278 
	C52.699707,131.183594 52.699711,131.183609 49.174034,131.792938 
	C44.168186,132.658112 40.777428,130.663116 40.066799,126.434631 
	C39.299625,121.869690 42.947041,119.394798 49.226437,120.219521 
	C53.865124,120.828751 55.828815,119.163696 55.986538,114.435234 
	C56.042061,112.770668 55.419857,110.772942 56.133835,109.505890 
	C57.597244,106.908875 59.754860,104.703049 61.626663,102.336166 
	C63.777496,104.151657 66.421852,105.642990 67.903198,107.898224 
	C68.868080,109.367188 67.871712,111.998581 68.256104,114.013428 
	C68.578362,115.702614 69.352562,118.404877 70.405029,118.656342 
	C74.059341,119.529411 77.924408,119.838577 81.704994,119.809090 
	C96.995323,119.689842 112.314949,118.669823 127.562958,119.348442 
	C138.496124,119.835030 138.032471,120.712425 140.296539,110.240402 
	C140.899643,107.450958 144.621552,104.000946 147.480240,103.349419 
	C151.683350,102.391487 151.715866,106.736420 152.040726,109.925354 
	C152.561996,115.042229 152.622543,120.567169 160.060730,120.590950 
	C161.939575,120.596954 163.913757,120.731346 165.662811,121.333458 
	C166.922852,121.767227 168.768036,123.030914 168.815796,124.000145 
	C168.984665,127.426453 169.210205,131.284988 163.788971,131.122162 
	C161.676147,131.058716 159.549881,131.763367 157.416428,131.996368 
	C153.677643,132.404694 152.134003,135.017380 152.162155,138.176590 
	C152.263748,149.578644 152.895676,160.977188 152.929657,172.378235 
	C152.954361,180.666672 152.420731,188.960449 152.002213,197.245087 
	C151.767441,201.892471 154.883362,203.229233 158.445679,203.905884 
	C160.539032,204.303513 162.891266,203.575714 164.888199,204.164398 
	C166.352509,204.596085 167.938263,206.135788 168.525482,207.568695 
	C169.047867,208.843323 168.800507,211.572189 167.969818,212.048126 
	C165.518143,213.452805 162.621613,214.770477 159.875885,214.819504 
	C155.131760,214.904205 151.648315,218.075333 152.160721,222.932800 
	C152.633759,227.417145 149.686447,231.870636 146.198303,231.942230 
	C143.211838,232.003525 140.032288,227.804153 140.006348,223.616745 
	C139.961411,216.364960 140.104248,209.110245 139.952713,201.861267 
	C139.741058,191.734756 139.113098,181.613205 139.075485,171.487991 
	C139.045303,163.365692 139.870590,155.240112 139.836853,147.117981 
	C139.820099,143.084381 138.725662,139.055283 138.118759,135.024139 
	C138.118759,135.024139 138.027618,134.553619 137.930832,133.929016 
	C135.089432,131.406677 132.419128,130.716446 129.980286,133.787674 
	C114.301384,133.823547 98.622482,133.859406 82.362030,133.479431 
	C78.064064,131.933502 74.294464,130.210251 71.021736,134.028290 
	C71.021736,134.028290 71.000221,133.999390 70.641678,134.041687 
	C69.237526,135.312759 67.111504,137.394928 67.307449,137.643005 
	C70.543419,141.739746 67.897377,146.055923 67.948219,150.187958 
	C68.116318,163.851089 68.013229,177.517563 68.011627,191.182755 
	C68.010185,203.454666 68.008675,203.454544 80.349152,203.176346 
	C80.514038,203.172623 80.679283,203.189545 80.844444,203.192993 
	C93.640556,203.459961 106.436043,203.851898 119.233192,203.917389 
	C123.110870,203.937241 125.812363,204.850021 126.430359,208.985153 
	C126.806335,211.500900 122.433372,215.911240 119.289207,215.950043 
	C106.540230,216.107407 93.788734,216.068726 81.040291,216.250778 
	C79.693108,216.270004 78.359856,217.265152 77.020142,217.807556 
	C76.276634,217.835617 75.533119,217.863678 74.411682,217.644928 
	C74.033745,217.398132 74.020058,216.992966 73.771057,216.726059 
	C69.118271,216.025772 65.917793,218.799088 67.700081,221.824554 
	C69.661552,225.154160 68.571060,227.726288 66.467499,229.724731 
	C65.248009,230.883301 62.543018,231.365982 60.825035,230.921539 
	C57.559078,230.076660 55.967819,227.503677 55.902355,223.908188 
	C55.878319,222.588318 54.736588,221.288773 54.104698,219.979965 
	C54.049015,219.555923 53.993332,219.131882 54.156799,218.198120 
	C52.521599,214.526016 52.516777,214.483810 48.051189,214.993835 
	C44.203339,215.433304 40.819958,214.781845 40.125671,210.359833 
	C39.472984,206.202835 42.496513,204.531815 45.924633,203.549850 
	C47.938248,202.973053 49.985447,202.513504 52.021515,201.783997 
	C52.025494,201.566788 52.030628,201.132355 52.030628,201.132355 
	C52.196606,201.114792 52.362583,201.097214 53.007629,201.327896 
	C57.622368,201.485703 57.054092,198.860138 56.447567,196.154144 
	C55.920414,193.802277 55.106071,191.436752 55.068283,189.066895 
	C54.912540,179.300262 54.980621,169.529602 55.014442,159.760590 
	C55.032768,154.467926 55.281807,149.172592 55.162384,143.884415 
	C55.103035,141.256226 54.447506,138.641479 54.061676,136.020660 
z"/>
<path fill="#F5F8F3" opacity="1.000000" stroke="none" 
	d="
M30.994837,39.996696 
	C31.932533,40.951962 32.870232,41.907227 33.807926,42.862495 
	C32.686043,43.575897 31.625319,44.761433 30.431067,44.916126 
	C26.504639,45.424709 25.816935,47.923203 25.833088,51.971107 
	C25.443171,54.392246 25.033880,56.020302 25.026327,57.650223 
	C24.664309,135.766296 24.337013,213.882538 23.707829,291.871704 
	C22.595049,291.491730 21.780249,291.238800 20.811049,290.601868 
	C20.482534,288.076385 20.156948,285.934998 20.156208,283.793488 
	C20.129953,207.868317 20.132105,131.943146 20.145361,56.017979 
	C20.145708,54.026428 20.313768,52.034916 20.748745,50.010719 
	C22.059612,47.653309 23.025347,45.328568 24.311228,42.957924 
	C25.088676,42.272064 25.545977,41.632111 26.367294,40.951454 
	C28.152485,40.606068 29.573662,40.301380 30.994837,39.996696 
z"/>
<path fill="#9DBEE8" opacity="1.000000" stroke="none" 
	d="
M138.070786,135.488220 
	C138.725662,139.055283 139.820099,143.084381 139.836853,147.117981 
	C139.870590,155.240112 139.045303,163.365692 139.075485,171.487991 
	C139.113098,181.613205 139.741058,191.734756 139.952713,201.861267 
	C140.104248,209.110245 139.961411,216.364960 140.006348,223.616745 
	C140.032288,227.804153 143.211838,232.003525 146.198303,231.942230 
	C149.686447,231.870636 152.633759,227.417145 152.160721,222.932800 
	C151.648315,218.075333 155.131760,214.904205 159.875885,214.819504 
	C162.621613,214.770477 165.518143,213.452805 167.969818,212.048126 
	C168.800507,211.572189 169.047867,208.843323 168.525482,207.568695 
	C167.938263,206.135788 166.352509,204.596085 164.888199,204.164398 
	C162.891266,203.575714 160.539032,204.303513 158.445679,203.905884 
	C154.883362,203.229233 151.767441,201.892471 152.002213,197.245087 
	C152.420731,188.960449 152.954361,180.666672 152.929657,172.378235 
	C152.895676,160.977188 152.263748,149.578644 152.162155,138.176590 
	C152.134003,135.017380 153.677643,132.404694 157.416428,131.996368 
	C159.549881,131.763367 161.676147,131.058716 163.788971,131.122162 
	C169.210205,131.284988 168.984665,127.426453 168.815796,124.000145 
	C168.768036,123.030914 166.922852,121.767227 165.662811,121.333458 
	C163.913757,120.731346 161.939575,120.596954 160.060730,120.590950 
	C152.622543,120.567169 152.561996,115.042229 152.040726,109.925354 
	C151.715866,106.736420 151.683350,102.391487 147.480240,103.349419 
	C144.621552,104.000946 140.899643,107.450958 140.296539,110.240402 
	C138.032471,120.712425 138.496124,119.835030 127.562958,119.348442 
	C112.314949,118.669823 96.995323,119.689842 81.704994,119.809090 
	C77.924408,119.838577 74.059341,119.529411 70.405029,118.656342 
	C69.352562,118.404877 68.578362,115.702614 68.256104,114.013428 
	C67.871712,111.998581 68.868080,109.367188 67.903198,107.898224 
	C66.421852,105.642990 63.777496,104.151657 61.626663,102.336166 
	C59.754860,104.703049 57.597244,106.908875 56.133835,109.505890 
	C55.419857,110.772942 56.042061,112.770668 55.986538,114.435234 
	C55.828815,119.163696 53.865124,120.828751 49.226437,120.219521 
	C42.947041,119.394798 39.299625,121.869690 40.066799,126.434631 
	C40.777428,130.663116 44.168186,132.658112 49.174034,131.792938 
	C52.699711,131.183609 52.699707,131.183594 54.126629,133.861603 
	C51.040619,134.025360 48.204727,134.078247 45.379608,133.928238 
	C40.657074,133.677490 37.165764,130.138123 37.053665,125.646255 
	C36.936066,120.934013 40.452354,117.280434 45.399975,116.986923 
	C46.064404,116.947510 46.732090,116.963493 47.398251,116.952675 
	C53.888748,116.847290 53.888748,116.847229 53.961975,110.304863 
	C54.040154,103.320267 56.895489,99.944885 62.643318,100.042336 
	C67.865944,100.130890 70.851524,103.816788 70.979416,110.333809 
	C71.108643,116.918648 71.108635,116.938789 77.592514,116.942177 
	C97.401474,116.952522 117.210426,116.945930 137.640762,116.945930 
	C137.769485,114.087189 137.898743,111.514732 137.998444,108.941132 
	C138.214325,103.368599 141.008148,100.259232 146.012253,100.045708 
	C151.080643,99.829460 154.263931,102.699150 154.965897,108.126022 
	C155.008453,108.454964 154.987183,108.791664 155.007614,109.124031 
	C155.476181,116.747086 155.476486,116.747055 162.922745,116.951218 
	C168.314240,117.099045 171.573868,120.030609 171.901367,125.026207 
	C172.192673,129.469879 168.582779,133.454849 163.598007,133.897385 
	C160.995407,134.128433 158.355408,133.938126 155.369537,133.938126 
	C155.369537,156.412552 155.369537,178.300110 155.369537,201.004608 
	C158.112259,201.004608 160.709869,200.930710 163.301865,201.020264 
	C168.418671,201.197067 171.842041,204.603592 171.879227,209.442291 
	C171.911301,213.615555 168.166336,217.574554 163.608246,217.923691 
	C160.999252,218.123535 158.362381,217.959869 155.011917,217.959869 
	C155.011917,220.636200 155.042496,222.740112 155.006058,224.842850 
	C154.904587,230.699997 151.059418,235.083252 146.223877,234.889847 
	C141.580185,234.704117 138.012955,230.422043 138.011185,224.896606 
	C138.001694,195.248505 138.016434,165.600403 138.070786,135.488220 
z"/>
<path fill="#F6F8F2" opacity="1.000000" stroke="none" 
	d="
M30.999874,52.000916 
	C31.332945,54.270935 31.955717,56.540775 31.957165,58.811005 
	C32.007114,137.227142 31.998375,215.643311 31.585686,294.529449 
	C28.757343,294.730438 25.568134,296.059662 25.376091,291.946869 
	C26.512278,289.743011 27.903080,287.598114 27.906265,285.451172 
	C28.018259,209.935104 27.999855,134.418823 28.000238,58.902584 
	C28.000246,57.571918 27.617401,56.068161 28.113277,54.957829 
	C28.640266,53.777824 30.002411,52.970806 30.999874,52.000916 
z"/>
<path fill="#F8F5FD" opacity="1.000000" stroke="none" 
	d="
M183.998169,291.000000 
	C181.461639,292.382782 179.837601,292.170319 179.996246,288.744568 
	C180.042419,287.747772 180.000732,286.746948 180.000732,285.747955 
	C180.000595,210.157928 179.989578,134.567871 180.055740,58.977905 
	C180.057663,56.783928 180.876450,54.590660 182.000870,52.397270 
	C183.124710,54.589031 183.942520,56.780258 183.944382,58.972176 
	C184.009766,136.314743 183.998566,213.657379 183.998169,291.000000 
z"/>
<path fill="#A0C1E9" opacity="1.000000" stroke="none" 
	d="
M197.460007,307.056580 
	C197.955856,305.036774 198.542404,302.807648 199.668991,300.896881 
	C202.783295,295.614899 204.963837,290.241730 203.526657,283.911530 
	C203.055511,281.836304 203.029694,279.629272 203.028992,277.482452 
	C203.004120,201.019135 202.896561,124.555435 203.158875,48.093010 
	C203.188141,39.556458 200.513809,32.954338 194.713928,27.171906 
	C194.031967,26.492010 193.606064,25.555286 193.015884,24.397602 
	C202.676895,28.932482 205.352478,37.719097 205.825409,47.580231 
	C206.080521,52.899490 205.883041,58.240639 205.883209,63.571911 
	C205.885559,137.876587 205.914627,212.181290 205.846954,286.485901 
	C205.839874,294.261780 204.425888,301.708282 197.460007,307.056580 
z"/>
<path fill="#99BBEA" opacity="1.000000" stroke="none" 
	d="
M20.403614,50.043385 
	C20.313768,52.034916 20.145708,54.026428 20.145361,56.017979 
	C20.132105,131.943146 20.129953,207.868317 20.156208,283.793488 
	C20.156948,285.934998 20.482534,288.076385 20.832508,290.970032 
	C23.419397,296.682587 26.828260,298.241394 34.038013,297.680511 
	C39.866344,297.756348 45.694691,297.898468 51.523010,297.897430 
	C93.684792,297.889893 135.846573,297.853455 178.855743,297.855743 
	C186.397552,297.083435 188.942551,294.087006 188.943268,286.825470 
	C188.950989,207.200668 188.949097,127.575874 188.937225,47.951073 
	C188.936081,40.319054 185.739563,37.149670 178.025055,36.990086 
	C178.025055,36.990086 177.904007,36.533657 177.844635,36.305145 
	C189.645050,33.896950 192.270218,43.607479 190.690216,51.557480 
	C190.241547,53.814991 190.031998,56.157444 190.030991,58.461082 
	C189.997192,135.604065 190.002441,212.747070 190.000473,289.890076 
	C190.000275,298.054016 186.038803,301.163727 177.919830,299.506683 
	C176.148102,299.145081 174.299149,299.025879 172.485626,299.024841 
	C128.165894,298.999298 83.846146,298.989899 39.526443,299.029602 
	C35.419758,299.033295 31.217125,300.026581 27.228540,299.429016 
	C20.596275,298.435394 19.003508,295.988251 19.003349,289.290588 
	C19.001549,212.480820 19.012699,135.671051 18.973623,58.861294 
	C18.971378,54.449989 18.764927,50.016872 18.283745,45.634506 
	C17.882334,41.978653 19.029173,39.508953 22.777420,38.313965 
	C23.146128,38.541729 23.233244,39.027313 23.127270,39.359596 
	C22.565966,40.752949 22.110632,41.814014 21.431263,43.166336 
	C20.939354,45.652851 20.671484,47.848118 20.403614,50.043385 
z"/>
<path fill="#F4F9F2" opacity="1.000000" stroke="none" 
	d="
M184.218063,291.115662 
	C183.998566,213.657379 184.009766,136.314743 183.944382,58.972176 
	C183.942520,56.780258 183.124710,54.589031 182.344238,52.198082 
	C181.904083,48.888847 181.807083,45.779018 182.258575,42.329376 
	C183.842941,43.103085 185.529831,44.083366 185.790192,45.355602 
	C186.515594,48.900131 186.966858,52.565517 186.969727,56.183624 
	C187.030853,133.068588 187.028412,209.953644 186.931000,286.838562 
	C186.928818,288.569397 185.678589,290.298706 185.010529,292.028717 
	C184.901962,291.703827 184.711105,291.438019 184.218063,291.115662 
z"/>
<path fill="#FAF6FB" opacity="1.000000" stroke="none" 
	d="
M31.124828,51.698845 
	C30.002411,52.970806 28.640266,53.777824 28.113277,54.957829 
	C27.617401,56.068161 28.000246,57.571918 28.000238,58.902584 
	C27.999855,134.418823 28.018259,209.935104 27.906265,285.451172 
	C27.903080,287.598114 26.512278,289.743011 25.131718,291.945801 
	C24.494938,292.002777 24.005806,291.998749 24.005806,291.998749 
	C24.337013,213.882538 24.664309,135.766296 25.026327,57.650223 
	C25.033880,56.020302 25.443171,54.392246 25.833364,52.380131 
	C26.916716,51.124882 27.692518,49.945095 28.779581,49.453262 
	C30.389042,48.725079 32.208790,48.498230 31.124828,51.698845 
z"/>
<path fill="#DAEBFE" opacity="1.000000" stroke="none" 
	d="
M184.854370,292.333710 
	C185.678589,290.298706 186.928818,288.569397 186.931000,286.838562 
	C187.028412,209.953644 187.030853,133.068588 186.969727,56.183624 
	C186.966858,52.565517 186.515594,48.900131 185.790192,45.355602 
	C185.529831,44.083366 183.842941,43.103085 182.417999,41.964203 
	C180.718399,40.523216 179.407928,39.107590 178.061249,37.341026 
	C185.739563,37.149670 188.936081,40.319054 188.937225,47.951073 
	C188.949097,127.575874 188.950989,207.200668 188.943268,286.825470 
	C188.942551,294.087006 186.397552,297.083435 179.315704,297.795959 
	C180.851593,296.017273 182.774902,294.327972 184.854370,292.333710 
z"/>
<path fill="#9EBFE7" opacity="1.000000" stroke="none" 
	d="
M77.482689,217.874161 
	C78.359856,217.265152 79.693108,216.270004 81.040291,216.250778 
	C93.788734,216.068726 106.540230,216.107407 119.289207,215.950043 
	C122.433372,215.911240 126.806335,211.500900 126.430359,208.985153 
	C125.812363,204.850021 123.110870,203.937241 119.233192,203.917389 
	C106.436043,203.851898 93.640556,203.459961 80.844444,203.192993 
	C80.679283,203.189545 80.514038,203.172623 80.349152,203.176346 
	C68.008675,203.454544 68.010185,203.454666 68.011627,191.182755 
	C68.013229,177.517563 68.116318,163.851089 67.948219,150.187958 
	C67.897377,146.055923 70.543419,141.739746 67.307449,137.643005 
	C67.111504,137.394928 69.237526,135.312759 70.655518,134.053436 
	C71.027916,156.114777 71.027916,178.206696 71.027916,200.968323 
	C73.376183,200.968323 75.149490,200.968292 76.922798,200.968307 
	C91.406143,200.968414 105.889603,200.936050 120.372772,200.985611 
	C125.695808,201.003830 130.034729,205.046570 129.913895,209.663544 
	C129.797195,214.123276 125.610649,217.937515 120.395210,217.962463 
	C106.245583,218.030136 92.095276,217.957672 77.482689,217.874161 
z"/>
<path fill="#FCF8F2" opacity="1.000000" stroke="none" 
	d="
M139.947479,53.833649 
	C141.387466,53.625721 142.827454,53.417793 144.632233,53.244385 
	C145.328766,54.616810 145.660538,55.954716 145.527496,57.647137 
	C118.708458,58.000912 92.354225,58.000172 66.000000,57.999432 
	C68.184387,57.001286 70.286842,55.487675 72.572144,55.124428 
	C76.099632,54.563740 79.752258,54.790386 84.149200,54.382721 
	C99.961586,54.123749 114.976570,54.165138 130.076324,54.536560 
	C132.750412,54.640198 135.339722,54.413799 138.267120,54.134735 
	C139.052628,53.999260 139.500061,53.916454 139.947479,53.833649 
z"/>
<path fill="#F3F8FC" opacity="1.000000" stroke="none" 
	d="
M66.096481,58.393166 
	C92.354225,58.000172 118.708458,58.000912 145.531342,58.002121 
	C144.750610,58.963284 143.496719,60.766541 142.252487,60.759903 
	C118.730095,60.634487 95.208443,60.320663 71.688133,59.951000 
	C69.850761,59.922115 68.024422,59.191418 66.096481,58.393166 
z"/>
<path fill="#A2C1E7" opacity="1.000000" stroke="none" 
	d="
M146.066467,5.191230 
	C146.756042,4.876505 147.464966,4.920260 148.530640,4.957965 
	C150.611008,6.221569 152.368668,7.447758 154.052856,8.767717 
	C168.261780,19.903833 165.805603,43.965096 149.391205,51.051464 
	C149.650711,49.631680 149.987518,47.959488 150.943832,46.796879 
	C153.044357,44.243217 155.942551,42.249672 157.662338,39.495052 
	C166.154327,25.893368 160.429001,19.407459 151.705078,10.848784 
	C149.867599,9.046115 147.960693,7.314216 146.066467,5.191230 
z"/>
<path fill="#F8F6EF" opacity="1.000000" stroke="none" 
	d="
M82.000366,138.001724 
	C83.134720,137.003036 84.256676,135.152191 85.405312,135.135483 
	C99.189827,134.934967 112.978783,134.958176 126.764748,135.100311 
	C127.837982,135.111359 128.897507,136.452240 129.512833,137.587448 
	C113.374962,138.000473 97.687668,138.001099 82.000366,138.001724 
z"/>
<path fill="#F2F8FC" opacity="1.000000" stroke="none" 
	d="
M82.057816,138.392960 
	C97.687668,138.001099 113.374962,138.000473 129.530853,138.001450 
	C128.155945,139.001465 126.329178,140.827118 124.466240,140.864792 
	C111.836761,141.120300 99.198639,141.071609 86.566299,140.900772 
	C85.073349,140.880569 83.598495,139.522232 82.057816,138.392960 
z"/>
<path fill="#9DBEE8" opacity="1.000000" stroke="none" 
	d="
M54.055740,220.423584 
	C54.736588,221.288773 55.878319,222.588318 55.902355,223.908188 
	C55.967819,227.503677 57.559078,230.076660 60.825035,230.921539 
	C62.543018,231.365982 65.248009,230.883301 66.467499,229.724731 
	C68.571060,227.726288 69.661552,225.154160 67.700081,221.824554 
	C65.917793,218.799088 69.118271,216.025772 73.567551,216.817932 
	C73.353828,217.338913 73.163071,217.560165 73.040771,217.840424 
	C72.352379,219.627930 71.598427,221.393448 70.990295,223.207855 
	C69.968773,226.255585 69.792015,230.013214 67.832626,232.183868 
	C66.284073,233.899399 61.882774,235.002640 60.023655,234.003891 
	C57.393394,232.590866 55.630104,229.153320 54.110592,226.258636 
	C53.363541,224.835464 53.997677,222.687286 54.055740,220.423584 
z"/>
<path fill="#A2C2E4" opacity="1.000000" stroke="none" 
	d="
M26.082033,37.072247 
	C26.720253,36.712826 27.351845,36.056431 27.997766,36.042015 
	C32.307926,35.945805 36.621361,36.012657 40.933300,35.975716 
	C45.353184,35.937851 48.682686,35.878685 51.684601,41.141003 
	C54.453033,45.994034 60.985161,48.700050 65.911880,52.722130 
	C58.251884,52.047604 52.099514,48.642982 48.219574,40.857204 
	C46.403576,39.165897 44.888802,37.469635 43.153816,37.202255 
	C40.167145,36.741978 37.043324,37.171658 33.977062,37.227833 
	C33.238136,37.198563 32.499210,37.169292 30.982992,37.124794 
	C28.831146,37.097126 27.456589,37.084686 26.082033,37.072247 
z"/>
<path fill="#9DBEE8" opacity="1.000000" stroke="none" 
	d="
M52.017540,202.001221 
	C49.985447,202.513504 47.938248,202.973053 45.924633,203.549850 
	C42.496513,204.531815 39.472984,206.202835 40.125671,210.359833 
	C40.819958,214.781845 44.203339,215.433304 48.051189,214.993835 
	C52.516777,214.483810 52.521599,214.526016 54.122726,217.879089 
	C50.743088,217.997360 47.492252,218.452942 44.514126,217.751190 
	C36.345181,215.826263 35.015724,208.794357 41.843559,202.308746 
	C42.899788,202.054581 43.446320,201.641907 43.992851,201.229233 
	C45.778751,201.162750 47.564648,201.096252 49.869827,201.287399 
	C50.931919,201.697083 51.474728,201.849152 52.017540,202.001221 
z"/>
<path fill="#9DBEE8" opacity="1.000000" stroke="none" 
	d="
M54.019623,136.485565 
	C54.447506,138.641479 55.103035,141.256226 55.162384,143.884415 
	C55.281807,149.172592 55.032768,154.467926 55.014442,159.760590 
	C54.980621,169.529602 54.912540,179.300262 55.068283,189.066895 
	C55.106071,191.436752 55.920414,193.802277 56.447567,196.154144 
	C57.054092,198.860138 57.622368,201.485703 53.257950,201.332214 
	C53.344585,199.177719 53.927349,197.268127 53.934055,195.356522 
	C54.002338,175.888016 53.976826,156.419205 54.019623,136.485565 
z"/>
<path fill="#A2C2E4" opacity="1.000000" stroke="none" 
	d="
M129.991562,54.206524 
	C114.976570,54.165138 99.961586,54.123749 84.482300,54.138428 
	C79.665413,54.120747 75.312820,54.047001 70.504883,53.910370 
	C71.298004,53.566689 72.545906,53.044010 73.795029,53.041092 
	C94.989006,52.991543 116.183136,53.003716 137.377213,53.020576 
	C138.024979,53.021091 138.672562,53.218781 139.633850,53.579098 
	C139.500061,53.916454 139.052628,53.999260 137.833206,54.080795 
	C134.704651,54.121861 132.348114,54.164192 129.991562,54.206524 
z"/>
<path fill="#E7FAFE" opacity="1.000000" stroke="none" 
	d="
M34.000034,37.591782 
	C37.043324,37.171658 40.167145,36.741978 43.153816,37.202255 
	C44.888802,37.469635 46.403576,39.165897 48.074001,40.597984 
	C44.010006,40.626286 39.879650,40.354610 35.778927,39.844646 
	C35.125427,39.763378 34.604969,38.612247 34.000034,37.591782 
z"/>
<path fill="#E7FAFE" opacity="1.000000" stroke="none" 
	d="
M23.707829,291.871704 
	C24.005806,291.998749 24.494938,292.002777 24.739311,292.003845 
	C25.568134,296.059662 28.757343,294.730438 31.584652,294.997864 
	C32.663013,295.678650 33.330074,296.360931 34.017570,297.361877 
	C26.828260,298.241394 23.419397,296.682587 20.986910,291.354034 
	C21.780249,291.238800 22.595049,291.491730 23.707829,291.871704 
z"/>
<path fill="#9EBFE7" opacity="1.000000" stroke="none" 
	d="
M71.478111,134.025452 
	C74.294464,130.210251 78.064064,131.933502 81.897171,133.427414 
	C78.654076,133.868362 75.294281,133.945480 71.478111,134.025452 
z"/>
<path fill="#E7FAFE" opacity="1.000000" stroke="none" 
	d="
M25.856716,37.305450 
	C27.456589,37.084686 28.831146,37.097126 30.615667,37.174820 
	C31.016569,37.928066 31.007505,38.616058 30.996639,39.650375 
	C29.573662,40.301380 28.152485,40.606068 26.315649,40.623760 
	C25.011074,39.900284 24.122160,39.463799 23.233244,39.027313 
	C23.233244,39.027313 23.146128,38.541729 23.142677,38.295422 
	C23.969950,37.878960 24.800674,37.708805 25.856716,37.305450 
z"/>
<path fill="#A0C1E9" opacity="1.000000" stroke="none" 
	d="
M192.743393,23.757153 
	C190.891754,23.725378 188.837341,23.417244 186.196930,22.803513 
	C184.711334,21.942900 183.811707,21.387880 182.912079,20.832863 
	C186.121582,21.715506 189.331100,22.598148 192.743393,23.757153 
z"/>
<path fill="#A0C1E9" opacity="1.000000" stroke="none" 
	d="
M177.994507,22.997131 
	C176.856094,23.907764 175.717682,24.818403 174.072601,25.979046 
	C173.372925,26.497557 173.179947,26.766064 172.986984,27.034575 
	C172.986984,27.034576 172.541336,27.033806 172.319336,27.029713 
	C173.815536,24.999716 175.533737,22.973808 177.623886,21.284447 
	C177.995392,22.079704 177.994949,22.538418 177.994507,22.997131 
z"/>
<path fill="#9EBFE7" opacity="1.000000" stroke="none" 
	d="
M130.420593,133.858047 
	C132.419128,130.716446 135.089432,131.406677 137.899475,133.691422 
	C135.596924,134.028427 133.228912,133.978424 130.420593,133.858047 
z"/>
<path fill="#99BBEA" opacity="1.000000" stroke="none" 
	d="
M178.402435,22.998783 
	C177.994949,22.538418 177.995392,22.079704 177.991943,21.275860 
	C179.357697,20.892159 180.727341,20.853584 182.504517,20.823936 
	C183.811707,21.387880 184.711334,21.942900 185.811035,22.753304 
	C183.610870,23.005939 181.210617,23.003187 178.402435,22.998783 
z"/>
<path fill="#9EBFE7" opacity="1.000000" stroke="none" 
	d="
M43.702335,201.194962 
	C43.446320,201.641907 42.899788,202.054581 42.188972,202.258392 
	C42.487064,201.753250 42.949444,201.456970 43.702335,201.194962 
z"/>
<path fill="#9EBFE7" opacity="1.000000" stroke="none" 
	d="
M52.021515,201.783997 
	C51.474728,201.849152 50.931919,201.697083 50.212780,201.321518 
	C50.480591,201.072403 50.924732,201.046783 51.699753,201.076752 
	C52.030628,201.132355 52.025494,201.566788 52.021515,201.783997 
z"/>
<path fill="#A2C1E7" opacity="1.000000" stroke="none" 
	d="
M146.367859,52.123726 
	C146.571625,51.816666 147.084579,51.458599 147.938904,51.134315 
	C147.745865,51.469635 147.211456,51.771179 146.367859,52.123726 
z"/>
<path fill="#A0C1E9" opacity="1.000000" stroke="none" 
	d="
M175.216415,35.252724 
	C175.614868,35.171139 176.156326,35.351353 176.864532,35.773922 
	C176.473999,35.849026 175.916718,35.681778 175.216415,35.252724 
z"/>
<path fill="#9EBFE7" opacity="1.000000" stroke="none" 
	d="
M73.294579,217.870209 
	C73.163071,217.560165 73.353828,217.338913 73.816559,217.084839 
	C74.020058,216.992966 74.033745,217.398132 74.041748,217.599396 
	C73.882622,217.833786 73.715508,217.866898 73.294579,217.870209 
z"/>
<path fill="#F2F6FA" opacity="1.000000" stroke="none" 
	d="
M62.076523,29.955360 
	C62.085468,29.230644 62.094414,28.505924 62.349922,27.197842 
	C63.440826,24.787952 64.285172,22.961430 65.129517,21.134907 
	C65.129517,21.134909 65.127441,21.057236 65.526215,21.103434 
	C70.047058,20.790302 74.167259,20.147919 78.291512,20.120834 
	C95.781441,20.005978 113.274239,19.942566 130.762070,20.166679 
	C135.162277,20.223070 139.547928,21.414392 143.940277,22.084148 
	C143.940277,22.084148 144.009521,22.022675 144.060516,22.258928 
	C144.291428,22.763155 144.531509,22.956364 144.831757,23.074812 
	C145.163818,23.862055 145.495895,24.649294 145.964172,25.966080 
	C146.100357,26.495625 146.223892,26.961401 146.223892,26.961401 
	C146.191010,28.048071 146.158142,29.134739 146.087006,30.861546 
	C146.048737,31.501680 146.044678,31.985182 146.044678,31.985182 
	C146.044678,31.985182 145.942963,32.407516 145.633789,32.815380 
	C142.070358,34.483345 138.833084,36.780678 135.559052,36.834297 
	C115.150185,37.168549 94.732933,37.038143 74.318893,36.955475 
	C71.539505,36.944218 68.762527,36.339893 65.984428,36.010162 
	C65.984428,36.010166 65.674446,35.885136 65.385254,35.544258 
	C64.089546,33.454037 63.083038,31.704699 62.076523,29.955360 
z"/>
<path fill="#94BAFC" opacity="1.000000" stroke="none" 
	d="
M149.000000,302.001221 
	C156.829849,302.001221 164.163773,301.866608 171.486923,302.088104 
	C173.528763,302.149811 175.538773,303.264221 177.563385,303.895752 
	C175.608368,304.596771 173.656296,305.898560 171.697861,305.908203 
	C144.544739,306.042084 117.390770,305.998749 90.237015,305.998749 
	C73.744858,305.998749 57.252693,305.999176 40.760532,305.997955 
	C39.594479,305.997864 38.335079,306.259766 37.288456,305.903015 
	C36.228302,305.541595 35.378532,304.563019 34.436615,303.854736 
	C35.308983,303.247314 36.108288,302.343872 37.071888,302.106049 
	C38.330242,301.795410 39.718651,302.002625 41.051109,302.002563 
	C76.867409,302.000885 112.683701,302.001221 149.000000,302.001221 
z"/>
<path fill="#A0BCEA" opacity="1.000000" stroke="none" 
	d="
M4.317507,285.708618 
	C4.010811,205.396408 3.982794,124.778694 4.000810,44.160988 
	C4.001211,42.364338 4.525519,40.567802 4.796008,38.349152 
	C6.203627,28.569635 16.583059,20.683430 28.611849,20.220692 
	C27.416132,21.243395 25.920673,22.610849 24.191553,23.042671 
	C16.060579,25.073254 10.913677,30.671242 6.559474,37.279137 
	C6.139129,37.917049 6.071325,38.856403 6.031642,39.665234 
	C5.665849,47.121071 5.058119,54.578697 5.050576,62.036335 
	C4.977269,134.513794 5.009731,206.991348 4.989569,279.468872 
	C4.989018,281.446991 4.736601,283.425018 4.317507,285.708618 
z"/>
<path fill="#9CBFE7" opacity="1.000000" stroke="none" 
	d="
M66.041183,36.390755 
	C68.762527,36.339893 71.539505,36.944218 74.318893,36.955475 
	C94.732933,37.038143 115.150185,37.168549 135.559052,36.834297 
	C138.833084,36.780678 142.070358,34.483345 145.622131,33.032272 
	C145.695862,37.474648 142.572754,39.820030 135.740234,39.956612 
	C127.598213,40.119362 119.450462,39.994312 111.305191,39.994755 
	C100.001549,39.995377 88.688202,40.262138 77.399673,39.849613 
	C73.599998,39.710758 69.863373,37.846836 66.041183,36.390755 
z"/>
<path fill="#9CBFE7" opacity="1.000000" stroke="none" 
	d="
M143.894470,21.702892 
	C139.547928,21.414392 135.162277,20.223070 130.762070,20.166679 
	C113.274239,19.942566 95.781441,20.005978 78.291512,20.120834 
	C74.167259,20.147919 70.047058,20.790302 65.502380,21.134113 
	C66.598991,20.414196 68.114738,19.104925 69.637955,19.096170 
	C92.299820,18.965908 114.963097,18.947582 137.624573,19.109535 
	C139.704437,19.124399 141.774200,20.550726 143.894470,21.702892 
z"/>
<path fill="#A0BCEA" opacity="1.000000" stroke="none" 
	d="
M62.669411,4.390525 
	C63.073631,4.082874 63.264038,4.028443 63.743988,4.042034 
	C63.197948,5.397948 62.544796,6.863489 61.494404,7.942228 
	C57.471790,12.073399 53.338501,16.097857 49.189842,20.103436 
	C48.819511,20.460997 48.040150,20.394922 47.242851,20.295898 
	C49.921547,12.672030 54.879032,7.348502 62.669411,4.390525 
z"/>
<path fill="#A0BCEA" opacity="1.000000" stroke="none" 
	d="
M11.879311,306.872559 
	C6.694224,303.846710 4.528181,298.780579 3.842609,292.458740 
	C3.843017,291.289886 3.909488,290.521393 4.006284,289.368073 
	C4.503199,289.642090 5.106071,290.243042 5.414512,290.969055 
	C7.607180,296.130157 9.739642,301.316803 11.879311,306.872559 
z"/>
<path fill="#9CBFE7" opacity="1.000000" stroke="none" 
	d="
M61.797318,30.183891 
	C63.083038,31.704699 64.089546,33.454037 65.218887,35.528328 
	C61.938133,35.535862 60.372463,33.926838 61.797318,30.183891 
z"/>
<path fill="#9CBFE7" opacity="1.000000" stroke="none" 
	d="
M64.767410,21.125706 
	C64.285172,22.961430 63.440826,24.787952 62.347382,26.835449 
	C59.995468,23.961060 61.853943,22.404228 64.767410,21.125706 
z"/>
<path fill="#9CBFE7" opacity="1.000000" stroke="none" 
	d="
M145.018402,22.936787 
	C144.531509,22.956364 144.291428,22.763155 144.019653,22.279896 
	C144.353561,22.309328 144.779312,22.554047 145.018402,22.936787 
z"/>
<path fill="#99BBEA" opacity="1.000000" stroke="none" 
	d="
M173.144440,27.178606 
	C173.179947,26.766064 173.372925,26.497557 173.791397,26.118723 
	C173.778549,26.446478 173.540222,26.884560 173.144440,27.178606 
z"/>
<path fill="#9CBFE7" opacity="1.000000" stroke="none" 
	d="
M146.346695,26.857922 
	C146.223892,26.961401 146.100357,26.495625 146.108597,26.255056 
	C146.485489,26.165323 146.603043,26.411974 146.346695,26.857922 
z"/>
<path fill="#9CBFE7" opacity="1.000000" stroke="none" 
	d="
M146.196213,31.908939 
	C146.044678,31.985182 146.048737,31.501680 146.112488,31.268757 
	C146.297791,31.210629 146.438873,31.376295 146.527679,31.566387 
	C146.550964,31.616262 146.412125,31.741871 146.196213,31.908939 
z"/>
<path fill="#E7FAFE" opacity="1.000000" stroke="none" 
	d="
M20.748745,50.010719 
	C20.671484,47.848118 20.939354,45.652851 21.822956,43.206161 
	C22.956152,42.971104 23.473618,42.987465 23.991081,43.003826 
	C23.025347,45.328568 22.059612,47.653309 20.748745,50.010719 
z"/>
<path fill="#F6F7F8" opacity="1.000000" stroke="none" 
	d="
M24.311230,42.957924 
	C23.473618,42.987465 22.956152,42.971104 22.046993,42.914909 
	C22.110632,41.814014 22.565966,40.752949 23.127270,39.359596 
	C24.122160,39.463799 25.011074,39.900284 25.951633,40.664459 
	C25.545977,41.632111 25.088676,42.272064 24.311230,42.957924 
z"/>
<path fill="#F6F7F8" opacity="1.000000" stroke="none" 
	d="
M130.076324,54.536560 
	C132.348114,54.164192 134.704651,54.121861 137.495117,54.133469 
	C135.339722,54.413799 132.750412,54.640198 130.076324,54.536560 
z"/>
</svg>